{
    "asset" : {
        "generator" : "Khronos glTF Blender I/O v1.2.75",
        "version" : "2.0"
    },
    "scene" : 0,
    "scenes" : [
        {
            "name" : "Scene",
            "nodes" : [
                0
            ]
        }
    ],
    "nodes" : [
        {
            "mesh" : 0,
            "name" : "14124 OnyxCeph3 Export UK"
        }
    ],
    "meshes" : [
        {
            "name" : "14124 OnyxCeph3 Export UK",
            "primitives" : [
                {
                    "attributes" : {
                        "POSITION" : 0,
                        "NORMAL" : 1
                    },
                    "indices" : 2
                }
            ]
        }
    ],
    "accessors" : [
        {
            "bufferView" : 0,
            "componentType" : 5126,
            "count" : 57918,
            "max" : [
                44.349998474121094,
                1.929595708847046,
                28.07500648498535
            ],
            "min" : [
                -44.35016632080078,
                -30.006202697753906,
                -33.13163757324219
            ],
            "type" : "VEC3"
        },
        {
            "bufferView" : 1,
            "componentType" : 5126,
            "count" : 57918,
            "type" : "VEC3"
        },
        {
            "bufferView" : 2,
            "componentType" : 5123,
            "count" : 57918,
            "type" : "SCALAR"
        }
    ],
    "bufferViews" : [
        {
            "buffer" : 0,
            "byteLength" : 695016,
            "byteOffset" : 0
        },
        {
            "buffer" : 0,
            "byteLength" : 695016,
            "byteOffset" : 695016
        },
        {
            "buffer" : 0,
            "byteLength" : 115836,
            "byteOffset" : 1390032
        }
    ],
    "buffers" : [
        {
            "byteLength" : 1505868,
            "uri" : "data:application/octet-stream;base64,"
        }
    ]
}
