{
    "asset" : {
        "generator" : "Khronos glTF Blender I/O v1.2.75",
        "version" : "2.0"
    },
    "scene" : 0,
    "scenes" : [
        {
            "name" : "Scene",
            "nodes" : [
                0
            ]
        }
    ],
    "nodes" : [
        {
            "mesh" : 0,
            "name" : "14124 OnyxCeph3 Export UK"
        }
    ],
    "meshes" : [
        {
            "name" : "14124 OnyxCeph3 Export UK",
            "primitives" : [
                {
                    "attributes" : {
                        "POSITION" : 0,
                        "NORMAL" : 1,
                        "TEXCOORD_0" : 2
                    },
                    "indices" : 3
                }
            ]
        }
    ],
    "accessors" : [
        {
            "bufferView" : 0,
            "componentType" : 5126,
            "count" : 64002,
            "max" : [
                0.09460926055908203,
                30.007307052612305,
                33.13159942626953
            ],
            "min" : [
                -44.35016632080078,
                -30.006202697753906,
                -33.13163757324219
            ],
            "type" : "VEC3"
        },
        {
            "bufferView" : 1,
            "componentType" : 5126,
            "count" : 64002,
            "type" : "VEC3"
        },
        {
            "bufferView" : 2,
            "componentType" : 5126,
            "count" : 64002,
            "type" : "VEC2"
        },
        {
            "bufferView" : 3,
            "componentType" : 5123,
            "count" : 65352,
            "type" : "SCALAR"
        }
    ],
    "bufferViews" : [
        {
            "buffer" : 0,
            "byteLength" : 768024,
            "byteOffset" : 0
        },
        {
            "buffer" : 0,
            "byteLength" : 768024,
            "byteOffset" : 768024
        },
        {
            "buffer" : 0,
            "byteLength" : 512016,
            "byteOffset" : 1536048
        },
        {
            "buffer" : 0,
            "byteLength" : 130704,
            "byteOffset" : 2048064
        }
    ],
    "buffers" : [
        {
            "byteLength" : 2178768,
            "uri" : "data:application/octet-stream;base64,"
        }
    ]
}
