{
    "asset" : {
        "generator" : "Khronos glTF Blender I/O v1.2.75",
        "version" : "2.0"
    },
    "scene" : 0,
    "scenes" : [
        {
            "name" : "Scene",
            "nodes" : [
                0
            ]
        }
    ],
    "nodes" : [
        {
            "mesh" : 0,
            "name" : "14124 OnyxCeph3 Export OK"
        }
    ],
    "meshes" : [
        {
            "name" : "14124 OnyxCeph3 Export OK",
            "primitives" : [
                {
                    "attributes" : {
                        "POSITION" : 0,
                        "NORMAL" : 1
                    },
                    "indices" : 2
                }
            ]
        }
    ],
    "accessors" : [
        {
            "bufferView" : 0,
            "componentType" : 5126,
            "count" : 68982,
            "max" : [
                44.35000228881836,
                30.00731086730957,
                33.13159942626953
            ],
            "min" : [
                -44.35005187988281,
                -0.7209375500679016,
                -33.12312698364258
            ],
            "type" : "VEC3"
        },
        {
            "bufferView" : 1,
            "componentType" : 5126,
            "count" : 68982,
            "type" : "VEC3"
        },
        {
            "bufferView" : 2,
            "componentType" : 5125,
            "count" : 68982,
            "type" : "SCALAR"
        }
    ],
    "bufferViews" : [
        {
            "buffer" : 0,
            "byteLength" : 827784,
            "byteOffset" : 0
        },
        {
            "buffer" : 0,
            "byteLength" : 827784,
            "byteOffset" : 827784
        },
        {
            "buffer" : 0,
            "byteLength" : 275928,
            "byteOffset" : 1655568
        }
    ],
    "buffers" : [
        {
            "byteLength" : 1931496,
            "uri" : "data:application/octet-stream;base64,"
        }
    ]
}
