{
    "asset" : {
        "generator" : "Khronos glTF Blender I/O v1.2.75",
        "version" : "2.0"
    },
    "scene" : 0,
    "scenes" : [
        {
            "name" : "Scene",
            "nodes" : [
                0
            ]
        }
    ],
    "nodes" : [
        {
            "mesh" : 0,
            "name" : "13260 OnyxCeph3 Export UK",
            "rotation" : [
                0.7071220278739929,
                0,
                0,
                0.7070915699005127
            ]
        }
    ],
    "meshes" : [
        {
            "name" : "13260 OnyxCeph3 Export UK",
            "primitives" : [
                {
                    "attributes" : {
                        "POSITION" : 0,
                        "NORMAL" : 1
                    },
                    "indices" : 2
                }
            ]
        }
    ],
    "accessors" : [
        {
            "bufferView" : 0,
            "componentType" : 5126,
            "count" : 77268,
            "max" : [
                44.349998474121094,
                28.0791015625,
                30.000091552734375
            ],
            "min" : [
                -44.3502082824707,
                -33.12500762939453,
                -4.556146144866943
            ],
            "type" : "VEC3"
        },
        {
            "bufferView" : 1,
            "componentType" : 5126,
            "count" : 77268,
            "type" : "VEC3"
        },
        {
            "bufferView" : 2,
            "componentType" : 5125,
            "count" : 77304,
            "type" : "SCALAR"
        }
    ],
    "bufferViews" : [
        {
            "buffer" : 0,
            "byteLength" : 927216,
            "byteOffset" : 0
        },
        {
            "buffer" : 0,
            "byteLength" : 927216,
            "byteOffset" : 927216
        },
        {
            "buffer" : 0,
            "byteLength" : 309216,
            "byteOffset" : 1854432
        }
    ],
    "buffers" : [
        {
            "byteLength" : 2163648,
            "uri" : "data:application/octet-stream;base64,"
        }
    ]
}
