{
    "asset" : {
        "generator" : "Khronos glTF Blender I/O v1.2.75",
        "version" : "2.0"
    },
    "scene" : 0,
    "scenes" : [
        {
            "name" : "Scene",
            "nodes" : [
                0
            ]
        }
    ],
    "nodes" : [
        {
            "mesh" : 0,
            "name" : "13260 OnyxCeph3 Export OK"
        }
    ],
    "meshes" : [
        {
            "name" : "13260 OnyxCeph3 Export OK.001",
            "primitives" : [
                {
                    "attributes" : {
                        "POSITION" : 0,
                        "NORMAL" : 1
                    },
                    "indices" : 2
                }
            ]
        }
    ],
    "accessors" : [
        {
            "bufferView" : 0,
            "componentType" : 5126,
            "count" : 101940,
            "max" : [
                44.349998474121094,
                30.04369354248047,
                33.101097106933594
            ],
            "min" : [
                -44.35007095336914,
                -1.017146348953247,
                -33.164581298828125
            ],
            "type" : "VEC3"
        },
        {
            "bufferView" : 1,
            "componentType" : 5126,
            "count" : 101940,
            "type" : "VEC3"
        },
        {
            "bufferView" : 2,
            "componentType" : 5125,
            "count" : 101940,
            "type" : "SCALAR"
        }
    ],
    "bufferViews" : [
        {
            "buffer" : 0,
            "byteLength" : 1223280,
            "byteOffset" : 0
        },
        {
            "buffer" : 0,
            "byteLength" : 1223280,
            "byteOffset" : 1223280
        },
        {
            "buffer" : 0,
            "byteLength" : 407760,
            "byteOffset" : 2446560
        }
    ],
    "buffers" : [
        {
            "byteLength" : 2854320,
            "uri" : "data:application/octet-stream;base64,"
        }
    ]
}
