{
    "asset" : {
        "generator" : "Khronos glTF Blender I/O v1.2.75",
        "version" : "2.0"
    },
    "scene" : 0,
    "scenes" : [
        {
            "name" : "Scene",
            "nodes" : [
                0
            ]
        }
    ],
    "nodes" : [
        {
            "mesh" : 0,
            "name" : "14102 OnyxCeph3 Export UK"
        }
    ],
    "meshes" : [
        {
            "name" : "14102 OnyxCeph3 Export UK.001",
            "primitives" : [
                {
                    "attributes" : {
                        "POSITION" : 0,
                        "NORMAL" : 1,
                        "TEXCOORD_0" : 2
                    },
                    "indices" : 3
                }
            ]
        }
    ],
    "accessors" : [
        {
            "bufferView" : 0,
            "componentType" : 5126,
            "count" : 60644,
            "max" : [
                -0.029077529907226562,
                29.907432556152344,
                30.28728675842285
            ],
            "min" : [
                -47.33084487915039,
                -29.676162719726562,
                -38.07129669189453
            ],
            "type" : "VEC3"
        },
        {
            "bufferView" : 1,
            "componentType" : 5126,
            "count" : 60644,
            "type" : "VEC3"
        },
        {
            "bufferView" : 2,
            "componentType" : 5126,
            "count" : 60644,
            "type" : "VEC2"
        },
        {
            "bufferView" : 3,
            "componentType" : 5123,
            "count" : 62028,
            "type" : "SCALAR"
        }
    ],
    "bufferViews" : [
        {
            "buffer" : 0,
            "byteLength" : 727728,
            "byteOffset" : 0
        },
        {
            "buffer" : 0,
            "byteLength" : 727728,
            "byteOffset" : 727728
        },
        {
            "buffer" : 0,
            "byteLength" : 485152,
            "byteOffset" : 1455456
        },
        {
            "buffer" : 0,
            "byteLength" : 124056,
            "byteOffset" : 1940608
        }
    ],
    "buffers" : [
        {
            "byteLength" : 2064664,
            "uri" : "data:application/octet-stream;base64,"
        }
    ]
}
