{
    "asset" : {
        "generator" : "Khronos glTF Blender I/O v1.2.75",
        "version" : "2.0"
    },
    "scene" : 0,
    "scenes" : [
        {
            "name" : "Scene",
            "nodes" : [
                0
            ]
        }
    ],
    "nodes" : [
        {
            "mesh" : 0,
            "name" : "14102 OnyxCeph3 Export UK"
        }
    ],
    "meshes" : [
        {
            "name" : "14102 OnyxCeph3 Export UK.001",
            "primitives" : [
                {
                    "attributes" : {
                        "POSITION" : 0,
                        "NORMAL" : 1
                    },
                    "indices" : 2
                }
            ]
        }
    ],
    "accessors" : [
        {
            "bufferView" : 0,
            "componentType" : 5126,
            "count" : 50380,
            "max" : [
                41.69203567504883,
                2.513475179672241,
                23.330827713012695
            ],
            "min" : [
                -46.955718994140625,
                -29.758087158203125,
                -39.9194450378418
            ],
            "type" : "VEC3"
        },
        {
            "bufferView" : 1,
            "componentType" : 5126,
            "count" : 50380,
            "type" : "VEC3"
        },
        {
            "bufferView" : 2,
            "componentType" : 5123,
            "count" : 50382,
            "type" : "SCALAR"
        }
    ],
    "bufferViews" : [
        {
            "buffer" : 0,
            "byteLength" : 604560,
            "byteOffset" : 0
        },
        {
            "buffer" : 0,
            "byteLength" : 604560,
            "byteOffset" : 604560
        },
        {
            "buffer" : 0,
            "byteLength" : 100764,
            "byteOffset" : 1209120
        }
    ],
    "buffers" : [
        {
            "byteLength" : 1309884,
            "uri" : "data:application/octet-stream;base64,"
        }
    ]
}
