{
    "asset" : {
        "generator" : "Khronos glTF Blender I/O v1.2.75",
        "version" : "2.0"
    },
    "scene" : 0,
    "scenes" : [
        {
            "name" : "Scene",
            "nodes" : [
                0
            ]
        }
    ],
    "nodes" : [
        {
            "mesh" : 0,
            "name" : "14102 OnyxCeph3 Export OK"
        }
    ],
    "meshes" : [
        {
            "name" : "14102 OnyxCeph3 Export OK.001",
            "primitives" : [
                {
                    "attributes" : {
                        "POSITION" : 0,
                        "NORMAL" : 1
                    },
                    "indices" : 2
                }
            ]
        }
    ],
    "accessors" : [
        {
            "bufferView" : 0,
            "componentType" : 5126,
            "count" : 66702,
            "max" : [
                41.31703567504883,
                29.907432556152344,
                30.28728675842285
            ],
            "min" : [
                -47.33084487915039,
                -1.8492804765701294,
                -37.9246826171875
            ],
            "type" : "VEC3"
        },
        {
            "bufferView" : 1,
            "componentType" : 5126,
            "count" : 66702,
            "type" : "VEC3"
        },
        {
            "bufferView" : 2,
            "componentType" : 5125,
            "count" : 66702,
            "type" : "SCALAR"
        }
    ],
    "bufferViews" : [
        {
            "buffer" : 0,
            "byteLength" : 800424,
            "byteOffset" : 0
        },
        {
            "buffer" : 0,
            "byteLength" : 800424,
            "byteOffset" : 800424
        },
        {
            "buffer" : 0,
            "byteLength" : 266808,
            "byteOffset" : 1600848
        }
    ],
    "buffers" : [
        {
            "byteLength" : 1867656,
            "uri" : "data:application/octet-stream;base64,"
        }
    ]
}
