{
    "asset" : {
        "generator" : "Khronos glTF Blender I/O v1.2.75",
        "version" : "2.0"
    },
    "scene" : 0,
    "scenes" : [
        {
            "name" : "Scene",
            "nodes" : [
                0
            ]
        }
    ],
    "nodes" : [
        {
            "mesh" : 0,
            "name" : "13917 OnyxCeph3 Export OK"
        }
    ],
    "meshes" : [
        {
            "name" : "13917 OnyxCeph3 Export OK",
            "primitives" : [
                {
                    "attributes" : {
                        "POSITION" : 0,
                        "NORMAL" : 1,
                        "TEXCOORD_0" : 2
                    },
                    "indices" : 3
                }
            ]
        }
    ],
    "accessors" : [
        {
            "bufferView" : 0,
            "componentType" : 5126,
            "count" : 69916,
            "max" : [
                0.10479354858398438,
                30.001981735229492,
                35.99895095825195
            ],
            "min" : [
                -44.35309982299805,
                -30.001989364624023,
                -36.00165557861328
            ],
            "type" : "VEC3"
        },
        {
            "bufferView" : 1,
            "componentType" : 5126,
            "count" : 69916,
            "type" : "VEC3"
        },
        {
            "bufferView" : 2,
            "componentType" : 5126,
            "count" : 69916,
            "type" : "VEC2"
        },
        {
            "bufferView" : 3,
            "componentType" : 5125,
            "count" : 71430,
            "type" : "SCALAR"
        }
    ],
    "bufferViews" : [
        {
            "buffer" : 0,
            "byteLength" : 838992,
            "byteOffset" : 0
        },
        {
            "buffer" : 0,
            "byteLength" : 838992,
            "byteOffset" : 838992
        },
        {
            "buffer" : 0,
            "byteLength" : 559328,
            "byteOffset" : 1677984
        },
        {
            "buffer" : 0,
            "byteLength" : 285720,
            "byteOffset" : 2237312
        }
    ],
    "buffers" : [
        {
            "byteLength" : 2523032,
            "uri" : "data:application/octet-stream;base64,"
        }
    ]
}
