{
    "asset" : {
        "generator" : "Khronos glTF Blender I/O v1.2.75",
        "version" : "2.0"
    },
    "scene" : 0,
    "scenes" : [
        {
            "name" : "Scene",
            "nodes" : [
                0
            ]
        }
    ],
    "nodes" : [
        {
            "mesh" : 0,
            "name" : "13917 OnyxCeph3 Export UK"
        }
    ],
    "meshes" : [
        {
            "name" : "13917 OnyxCeph3 Export UK",
            "primitives" : [
                {
                    "attributes" : {
                        "POSITION" : 0,
                        "NORMAL" : 1
                    },
                    "indices" : 2
                }
            ]
        }
    ],
    "accessors" : [
        {
            "bufferView" : 0,
            "componentType" : 5126,
            "count" : 53724,
            "max" : [
                44.35040283203125,
                2.8616292476654053,
                31.018789291381836
            ],
            "min" : [
                -44.35309982299805,
                -30.001989364624023,
                -35.999515533447266
            ],
            "type" : "VEC3"
        },
        {
            "bufferView" : 1,
            "componentType" : 5126,
            "count" : 53724,
            "type" : "VEC3"
        },
        {
            "bufferView" : 2,
            "componentType" : 5123,
            "count" : 53730,
            "type" : "SCALAR"
        }
    ],
    "bufferViews" : [
        {
            "buffer" : 0,
            "byteLength" : 644688,
            "byteOffset" : 0
        },
        {
            "buffer" : 0,
            "byteLength" : 644688,
            "byteOffset" : 644688
        },
        {
            "buffer" : 0,
            "byteLength" : 107460,
            "byteOffset" : 1289376
        }
    ],
    "buffers" : [
        {
            "byteLength" : 1396836,
            "uri" : "data:application/octet-stream;base64,"
        }
    ]
}
