{
    "asset" : {
        "generator" : "Khronos glTF Blender I/O v1.2.75",
        "version" : "2.0"
    },
    "scene" : 0,
    "scenes" : [
        {
            "name" : "Scene",
            "nodes" : [
                0
            ]
        }
    ],
    "nodes" : [
        {
            "mesh" : 0,
            "name" : "13917 OnyxCeph3 Export OK"
        }
    ],
    "meshes" : [
        {
            "name" : "13917 OnyxCeph3 Export OK",
            "primitives" : [
                {
                    "attributes" : {
                        "POSITION" : 0,
                        "NORMAL" : 1
                    },
                    "indices" : 2
                }
            ]
        }
    ],
    "accessors" : [
        {
            "bufferView" : 0,
            "componentType" : 5126,
            "count" : 85648,
            "max" : [
                44.3515625,
                30.001981735229492,
                35.99895095825195
            ],
            "min" : [
                -44.35001754760742,
                -0.9591721296310425,
                -36.00165939331055
            ],
            "type" : "VEC3"
        },
        {
            "bufferView" : 1,
            "componentType" : 5126,
            "count" : 85648,
            "type" : "VEC3"
        },
        {
            "bufferView" : 2,
            "componentType" : 5125,
            "count" : 85650,
            "type" : "SCALAR"
        }
    ],
    "bufferViews" : [
        {
            "buffer" : 0,
            "byteLength" : 1027776,
            "byteOffset" : 0
        },
        {
            "buffer" : 0,
            "byteLength" : 1027776,
            "byteOffset" : 1027776
        },
        {
            "buffer" : 0,
            "byteLength" : 342600,
            "byteOffset" : 2055552
        }
    ],
    "buffers" : [
        {
            "byteLength" : 2398152,
            "uri" : "data:application/octet-stream;base64,"
        }
    ]
}
