{
    "asset" : {
        "generator" : "Khronos glTF Blender I/O v1.2.75",
        "version" : "2.0"
    },
    "scene" : 0,
    "scenes" : [
        {
            "name" : "Scene",
            "nodes" : [
                0
            ]
        }
    ],
    "nodes" : [
        {
            "mesh" : 0,
            "name" : "00001342 OnyxCeph3 Export OK"
        }
    ],
    "meshes" : [
        {
            "name" : "00001342 OnyxCeph3 Export OK",
            "primitives" : [
                {
                    "attributes" : {
                        "POSITION" : 0,
                        "NORMAL" : 1,
                        "TEXCOORD_0" : 2
                    },
                    "indices" : 3
                }
            ]
        }
    ],
    "accessors" : [
        {
            "bufferView" : 0,
            "componentType" : 5126,
            "count" : 69108,
            "max" : [
                0.15114784240722656,
                30.00395393371582,
                33.12855911254883
            ],
            "min" : [
                -44.35000228881836,
                -30.00339698791504,
                -33.128597259521484
            ],
            "type" : "VEC3"
        },
        {
            "bufferView" : 1,
            "componentType" : 5126,
            "count" : 69108,
            "type" : "VEC3"
        },
        {
            "bufferView" : 2,
            "componentType" : 5126,
            "count" : 69108,
            "type" : "VEC2"
        },
        {
            "bufferView" : 3,
            "componentType" : 5125,
            "count" : 70536,
            "type" : "SCALAR"
        }
    ],
    "bufferViews" : [
        {
            "buffer" : 0,
            "byteLength" : 829296,
            "byteOffset" : 0
        },
        {
            "buffer" : 0,
            "byteLength" : 829296,
            "byteOffset" : 829296
        },
        {
            "buffer" : 0,
            "byteLength" : 552864,
            "byteOffset" : 1658592
        },
        {
            "buffer" : 0,
            "byteLength" : 282144,
            "byteOffset" : 2211456
        }
    ],
    "buffers" : [
        {
            "byteLength" : 2493600,
            "uri" : "data:application/octet-stream;base64,"
        }
    ]
}
