{
    "asset" : {
        "generator" : "Khronos glTF Blender I/O v1.2.75",
        "version" : "2.0"
    },
    "scene" : 0,
    "scenes" : [
        {
            "name" : "Scene",
            "nodes" : [
                0
            ]
        }
    ],
    "nodes" : [
        {
            "mesh" : 0,
            "name" : "00001342 OnyxCeph3 Export OK"
        }
    ],
    "meshes" : [
        {
            "name" : "00001342 OnyxCeph3 Export OK",
            "primitives" : [
                {
                    "attributes" : {
                        "POSITION" : 0,
                        "NORMAL" : 1
                    },
                    "indices" : 2
                }
            ]
        }
    ],
    "accessors" : [
        {
            "bufferView" : 0,
            "componentType" : 5126,
            "count" : 78756,
            "max" : [
                44.3520622253418,
                30.00395393371582,
                33.12855911254883
            ],
            "min" : [
                -44.35000228881836,
                -4.20966911315918,
                -33.12398910522461
            ],
            "type" : "VEC3"
        },
        {
            "bufferView" : 1,
            "componentType" : 5126,
            "count" : 78756,
            "type" : "VEC3"
        },
        {
            "bufferView" : 2,
            "componentType" : 5125,
            "count" : 78756,
            "type" : "SCALAR"
        }
    ],
    "bufferViews" : [
        {
            "buffer" : 0,
            "byteLength" : 945072,
            "byteOffset" : 0
        },
        {
            "buffer" : 0,
            "byteLength" : 945072,
            "byteOffset" : 945072
        },
        {
            "buffer" : 0,
            "byteLength" : 315024,
            "byteOffset" : 1890144
        }
    ],
    "buffers" : [
        {
            "byteLength" : 2205168,
            "uri" : "data:application/octet-stream;base64,"
        }
    ]
}
