{
    "asset" : {
        "generator" : "Khronos glTF Blender I/O v1.2.75",
        "version" : "2.0"
    },
    "scene" : 0,
    "scenes" : [
        {
            "name" : "Scene",
            "nodes" : [
                0
            ]
        }
    ],
    "nodes" : [
        {
            "mesh" : 0,
            "name" : "00001342 OnyxCeph3 Export UK"
        }
    ],
    "meshes" : [
        {
            "name" : "00001342 OnyxCeph3 Export UK",
            "primitives" : [
                {
                    "attributes" : {
                        "POSITION" : 0,
                        "NORMAL" : 1
                    },
                    "indices" : 2
                }
            ]
        }
    ],
    "accessors" : [
        {
            "bufferView" : 0,
            "componentType" : 5126,
            "count" : 55350,
            "max" : [
                44.35000228881836,
                4.319613456726074,
                28.076662063598633
            ],
            "min" : [
                -44.349979400634766,
                -30.00339698791504,
                -33.128597259521484
            ],
            "type" : "VEC3"
        },
        {
            "bufferView" : 1,
            "componentType" : 5126,
            "count" : 55350,
            "type" : "VEC3"
        },
        {
            "bufferView" : 2,
            "componentType" : 5123,
            "count" : 55350,
            "type" : "SCALAR"
        }
    ],
    "bufferViews" : [
        {
            "buffer" : 0,
            "byteLength" : 664200,
            "byteOffset" : 0
        },
        {
            "buffer" : 0,
            "byteLength" : 664200,
            "byteOffset" : 664200
        },
        {
            "buffer" : 0,
            "byteLength" : 110700,
            "byteOffset" : 1328400
        }
    ],
    "buffers" : [
        {
            "byteLength" : 1439100,
            "uri" : "data:application/octet-stream;base64,"
        }
    ]
}
