{
    "asset" : {
        "generator" : "Khronos glTF Blender I/O v1.2.75",
        "version" : "2.0"
    },
    "scene" : 0,
    "scenes" : [
        {
            "name" : "Scene",
            "nodes" : [
                0
            ]
        }
    ],
    "nodes" : [
        {
            "mesh" : 0,
            "name" : "00001551 OnyxCeph3 Export OK"
        }
    ],
    "meshes" : [
        {
            "name" : "00001551 OnyxCeph3 Export OK",
            "primitives" : [
                {
                    "attributes" : {
                        "POSITION" : 0,
                        "NORMAL" : 1
                    },
                    "indices" : 2
                }
            ]
        }
    ],
    "accessors" : [
        {
            "bufferView" : 0,
            "componentType" : 5126,
            "count" : 70560,
            "max" : [
                40.961124420166016,
                29.757551193237305,
                30.784236907958984
            ],
            "min" : [
                -40.670135498046875,
                -1.3959628343582153,
                -30.209625244140625
            ],
            "type" : "VEC3"
        },
        {
            "bufferView" : 1,
            "componentType" : 5126,
            "count" : 70560,
            "type" : "VEC3"
        },
        {
            "bufferView" : 2,
            "componentType" : 5125,
            "count" : 70560,
            "type" : "SCALAR"
        }
    ],
    "bufferViews" : [
        {
            "buffer" : 0,
            "byteLength" : 846720,
            "byteOffset" : 0
        },
        {
            "buffer" : 0,
            "byteLength" : 846720,
            "byteOffset" : 846720
        },
        {
            "buffer" : 0,
            "byteLength" : 282240,
            "byteOffset" : 1693440
        }
    ],
    "buffers" : [
        {
            "byteLength" : 1975680,
            "uri" : "data:application/octet-stream;base64,"
        }
    ]
}
