{
    "asset" : {
        "generator" : "Khronos glTF Blender I/O v1.2.75",
        "version" : "2.0"
    },
    "scene" : 0,
    "scenes" : [
        {
            "name" : "Scene",
            "nodes" : [
                0
            ]
        }
    ],
    "nodes" : [
        {
            "mesh" : 0,
            "name" : "00001551 OnyxCeph3 Export UK"
        }
    ],
    "meshes" : [
        {
            "name" : "00001551 OnyxCeph3 Export UK",
            "primitives" : [
                {
                    "attributes" : {
                        "POSITION" : 0,
                        "NORMAL" : 1,
                        "TEXCOORD_0" : 2
                    },
                    "indices" : 3
                }
            ]
        }
    ],
    "accessors" : [
        {
            "bufferView" : 0,
            "componentType" : 5126,
            "count" : 62844,
            "max" : [
                0.22031784057617188,
                29.757551193237305,
                30.784236907958984
            ],
            "min" : [
                -40.670135498046875,
                -29.393943786621094,
                -30.4040470123291
            ],
            "type" : "VEC3"
        },
        {
            "bufferView" : 1,
            "componentType" : 5126,
            "count" : 62844,
            "type" : "VEC3"
        },
        {
            "bufferView" : 2,
            "componentType" : 5126,
            "count" : 62844,
            "type" : "VEC2"
        },
        {
            "bufferView" : 3,
            "componentType" : 5123,
            "count" : 64506,
            "type" : "SCALAR"
        }
    ],
    "bufferViews" : [
        {
            "buffer" : 0,
            "byteLength" : 754128,
            "byteOffset" : 0
        },
        {
            "buffer" : 0,
            "byteLength" : 754128,
            "byteOffset" : 754128
        },
        {
            "buffer" : 0,
            "byteLength" : 502752,
            "byteOffset" : 1508256
        },
        {
            "buffer" : 0,
            "byteLength" : 129012,
            "byteOffset" : 2011008
        }
    ],
    "buffers" : [
        {
            "byteLength" : 2140020,
            "uri" : "data:application/octet-stream;base64,"
        }
    ]
}
