{
    "asset" : {
        "generator" : "Khronos glTF Blender I/O v1.2.75",
        "version" : "2.0"
    },
    "scene" : 0,
    "scenes" : [
        {
            "name" : "Scene",
            "nodes" : [
                0
            ]
        }
    ],
    "nodes" : [
        {
            "mesh" : 0,
            "name" : "00001551 OnyxCeph3 Export UK"
        }
    ],
    "meshes" : [
        {
            "name" : "00001551 OnyxCeph3 Export UK",
            "primitives" : [
                {
                    "attributes" : {
                        "POSITION" : 0,
                        "NORMAL" : 1
                    },
                    "indices" : 2
                }
            ]
        }
    ],
    "accessors" : [
        {
            "bufferView" : 0,
            "componentType" : 5126,
            "count" : 46986,
            "max" : [
                40.991207122802734,
                3.3679144382476807,
                25.931224822998047
            ],
            "min" : [
                -40.63999938964844,
                -29.41667366027832,
                -30.4040470123291
            ],
            "type" : "VEC3"
        },
        {
            "bufferView" : 1,
            "componentType" : 5126,
            "count" : 46986,
            "type" : "VEC3"
        },
        {
            "bufferView" : 2,
            "componentType" : 5123,
            "count" : 46986,
            "type" : "SCALAR"
        }
    ],
    "bufferViews" : [
        {
            "buffer" : 0,
            "byteLength" : 563832,
            "byteOffset" : 0
        },
        {
            "buffer" : 0,
            "byteLength" : 563832,
            "byteOffset" : 563832
        },
        {
            "buffer" : 0,
            "byteLength" : 93972,
            "byteOffset" : 1127664
        }
    ],
    "buffers" : [
        {
            "byteLength" : 1221636,
            "uri" : "data:application/octet-stream;base64,"
        }
    ]
}
