{
    "asset" : {
        "generator" : "Khronos glTF Blender I/O v1.2.75",
        "version" : "2.0"
    },
    "scene" : 0,
    "scenes" : [
        {
            "name" : "Scene",
            "nodes" : [
                0
            ]
        }
    ],
    "nodes" : [
        {
            "mesh" : 0,
            "name" : "13502 OnyxCeph3 Export UK"
        }
    ],
    "meshes" : [
        {
            "name" : "13502 OnyxCeph3 Export UK",
            "primitives" : [
                {
                    "attributes" : {
                        "POSITION" : 0,
                        "NORMAL" : 1
                    },
                    "indices" : 2
                }
            ]
        }
    ],
    "accessors" : [
        {
            "bufferView" : 0,
            "componentType" : 5126,
            "count" : 59412,
            "max" : [
                44.350440979003906,
                5.61090612411499,
                31.031147003173828
            ],
            "min" : [
                -44.35687255859375,
                -30.01980209350586,
                -35.99530029296875
            ],
            "type" : "VEC3"
        },
        {
            "bufferView" : 1,
            "componentType" : 5126,
            "count" : 59412,
            "type" : "VEC3"
        },
        {
            "bufferView" : 2,
            "componentType" : 5123,
            "count" : 59412,
            "type" : "SCALAR"
        }
    ],
    "bufferViews" : [
        {
            "buffer" : 0,
            "byteLength" : 712944,
            "byteOffset" : 0
        },
        {
            "buffer" : 0,
            "byteLength" : 712944,
            "byteOffset" : 712944
        },
        {
            "buffer" : 0,
            "byteLength" : 118824,
            "byteOffset" : 1425888
        }
    ],
    "buffers" : [
        {
            "byteLength" : 1544712,
            "uri" : "data:application/octet-stream;base64,"
        }
    ]
}
