{
    "asset" : {
        "generator" : "Khronos glTF Blender I/O v1.2.75",
        "version" : "2.0"
    },
    "scene" : 0,
    "scenes" : [
        {
            "name" : "Scene",
            "nodes" : [
                0
            ]
        }
    ],
    "nodes" : [
        {
            "mesh" : 0,
            "name" : "13502 OnyxCeph3 Export OK"
        }
    ],
    "meshes" : [
        {
            "name" : "13502 OnyxCeph3 Export OK",
            "primitives" : [
                {
                    "attributes" : {
                        "POSITION" : 0,
                        "NORMAL" : 1
                    },
                    "indices" : 2
                }
            ]
        }
    ],
    "accessors" : [
        {
            "bufferView" : 0,
            "componentType" : 5126,
            "count" : 81910,
            "max" : [
                44.35001754760742,
                30.01979637145996,
                35.990535736083984
            ],
            "min" : [
                -44.352169036865234,
                0.1710197925567627,
                -36.01649475097656
            ],
            "type" : "VEC3"
        },
        {
            "bufferView" : 1,
            "componentType" : 5126,
            "count" : 81910,
            "type" : "VEC3"
        },
        {
            "bufferView" : 2,
            "componentType" : 5125,
            "count" : 81912,
            "type" : "SCALAR"
        }
    ],
    "bufferViews" : [
        {
            "buffer" : 0,
            "byteLength" : 982920,
            "byteOffset" : 0
        },
        {
            "buffer" : 0,
            "byteLength" : 982920,
            "byteOffset" : 982920
        },
        {
            "buffer" : 0,
            "byteLength" : 327648,
            "byteOffset" : 1965840
        }
    ],
    "buffers" : [
        {
            "byteLength" : 2293488,
            "uri" : "data:application/octet-stream;base64,"
        }
    ]
}
