{
    "asset" : {
        "generator" : "Khronos glTF Blender I/O v1.2.75",
        "version" : "2.0"
    },
    "scene" : 0,
    "scenes" : [
        {
            "name" : "Scene",
            "nodes" : [
                0
            ]
        }
    ],
    "nodes" : [
        {
            "mesh" : 0,
            "name" : "13502 OnyxCeph3 Export OK"
        }
    ],
    "meshes" : [
        {
            "name" : "13502 OnyxCeph3 Export OK",
            "primitives" : [
                {
                    "attributes" : {
                        "POSITION" : 0,
                        "NORMAL" : 1,
                        "TEXCOORD_0" : 2
                    },
                    "indices" : 3
                }
            ]
        }
    ],
    "accessors" : [
        {
            "bufferView" : 0,
            "componentType" : 5126,
            "count" : 70966,
            "max" : [
                0.1511516571044922,
                30.01979637145996,
                35.990535736083984
            ],
            "min" : [
                -44.35687255859375,
                -30.019800186157227,
                -36.01649475097656
            ],
            "type" : "VEC3"
        },
        {
            "bufferView" : 1,
            "componentType" : 5126,
            "count" : 70966,
            "type" : "VEC3"
        },
        {
            "bufferView" : 2,
            "componentType" : 5126,
            "count" : 70966,
            "type" : "VEC2"
        },
        {
            "bufferView" : 3,
            "componentType" : 5125,
            "count" : 72420,
            "type" : "SCALAR"
        }
    ],
    "bufferViews" : [
        {
            "buffer" : 0,
            "byteLength" : 851592,
            "byteOffset" : 0
        },
        {
            "buffer" : 0,
            "byteLength" : 851592,
            "byteOffset" : 851592
        },
        {
            "buffer" : 0,
            "byteLength" : 567728,
            "byteOffset" : 1703184
        },
        {
            "buffer" : 0,
            "byteLength" : 289680,
            "byteOffset" : 2270912
        }
    ],
    "buffers" : [
        {
            "byteLength" : 2560592,
            "uri" : "data:application/octet-stream;base64,"
        }
    ]
}
