{
    "asset" : {
        "generator" : "Khronos glTF Blender I/O v1.2.75",
        "version" : "2.0"
    },
    "scene" : 0,
    "scenes" : [
        {
            "name" : "Scene",
            "nodes" : [
                0
            ]
        }
    ],
    "nodes" : [
        {
            "mesh" : 0,
            "name" : "13959 OnyxCeph3 Export OK"
        }
    ],
    "materials" : [
        {
            "doubleSided" : true,
            "emissiveFactor" : [
                0,
                0,
                0
            ],
            "name" : "Material.001",
            "pbrMetallicRoughness" : {
                "baseColorFactor" : [
                    0.800000011920929,
                    0.800000011920929,
                    0.800000011920929,
                    1
                ],
                "metallicFactor" : 0,
                "roughnessFactor" : 0.5
            }
        }
    ],
    "meshes" : [
        {
            "name" : "13959 OnyxCeph3 Export OK",
            "primitives" : [
                {
                    "attributes" : {
                        "POSITION" : 0,
                        "NORMAL" : 1
                    },
                    "indices" : 2,
                    "material" : 0
                }
            ]
        }
    ],
    "accessors" : [
        {
            "bufferView" : 0,
            "componentType" : 5126,
            "count" : 76709,
            "max" : [
                44.35010528564453,
                29.99999237060547,
                33.125003814697266
            ],
            "min" : [
                -44.34999465942383,
                -3.151275873184204,
                -33.12500762939453
            ],
            "type" : "VEC3"
        },
        {
            "bufferView" : 1,
            "componentType" : 5126,
            "count" : 76709,
            "type" : "VEC3"
        },
        {
            "bufferView" : 2,
            "componentType" : 5125,
            "count" : 76740,
            "type" : "SCALAR"
        }
    ],
    "bufferViews" : [
        {
            "buffer" : 0,
            "byteLength" : 920508,
            "byteOffset" : 0
        },
        {
            "buffer" : 0,
            "byteLength" : 920508,
            "byteOffset" : 920508
        },
        {
            "buffer" : 0,
            "byteLength" : 306960,
            "byteOffset" : 1841016
        }
    ],
    "buffers" : [
        {
            "byteLength" : 2147976,
            "uri" : "data:application/octet-stream;base64,"
        }
    ]
}
