{
    "asset" : {
        "generator" : "Khronos glTF Blender I/O v1.2.75",
        "version" : "2.0"
    },
    "scene" : 0,
    "scenes" : [
        {
            "name" : "Scene",
            "nodes" : [
                0
            ]
        }
    ],
    "nodes" : [
        {
            "mesh" : 0,
            "name" : "13301 OnyxCeph3 Export UK"
        }
    ],
    "meshes" : [
        {
            "name" : "13301 OnyxCeph3 Export UK.001",
            "primitives" : [
                {
                    "attributes" : {
                        "POSITION" : 0,
                        "NORMAL" : 1
                    },
                    "indices" : 2
                }
            ]
        }
    ],
    "accessors" : [
        {
            "bufferView" : 0,
            "componentType" : 5126,
            "count" : 61355,
            "max" : [
                44.35001754760742,
                3.6696650981903076,
                31.021881103515625
            ],
            "min" : [
                -44.355464935302734,
                -30.006441116333008,
                -35.99846267700195
            ],
            "type" : "VEC3"
        },
        {
            "bufferView" : 1,
            "componentType" : 5126,
            "count" : 61355,
            "type" : "VEC3"
        },
        {
            "bufferView" : 2,
            "componentType" : 5123,
            "count" : 61359,
            "type" : "SCALAR"
        }
    ],
    "bufferViews" : [
        {
            "buffer" : 0,
            "byteLength" : 736260,
            "byteOffset" : 0
        },
        {
            "buffer" : 0,
            "byteLength" : 736260,
            "byteOffset" : 736260
        },
        {
            "buffer" : 0,
            "byteLength" : 122718,
            "byteOffset" : 1472520
        }
    ],
    "buffers" : [
        {
            "byteLength" : 1595240,
            "uri" : "data:application/octet-stream;base64,"
        }
    ]
}
