{
    "asset" : {
        "generator" : "Khronos glTF Blender I/O v1.2.75",
        "version" : "2.0"
    },
    "scene" : 0,
    "scenes" : [
        {
            "name" : "Scene",
            "nodes" : [
                0
            ]
        }
    ],
    "nodes" : [
        {
            "mesh" : 0,
            "name" : "13301 OnyxCeph3 Export OK"
        }
    ],
    "meshes" : [
        {
            "name" : "13301 OnyxCeph3 Export OK.001",
            "primitives" : [
                {
                    "attributes" : {
                        "POSITION" : 0,
                        "NORMAL" : 1,
                        "TEXCOORD_0" : 2
                    },
                    "indices" : 3
                }
            ]
        }
    ],
    "accessors" : [
        {
            "bufferView" : 0,
            "componentType" : 5126,
            "count" : 72741,
            "max" : [
                0.08253145217895508,
                30.006439208984375,
                35.99663543701172
            ],
            "min" : [
                -44.355464935302734,
                -30.006439208984375,
                -36.005367279052734
            ],
            "type" : "VEC3"
        },
        {
            "bufferView" : 1,
            "componentType" : 5126,
            "count" : 72741,
            "type" : "VEC3"
        },
        {
            "bufferView" : 2,
            "componentType" : 5126,
            "count" : 72741,
            "type" : "VEC2"
        },
        {
            "bufferView" : 3,
            "componentType" : 5125,
            "count" : 74265,
            "type" : "SCALAR"
        }
    ],
    "bufferViews" : [
        {
            "buffer" : 0,
            "byteLength" : 872892,
            "byteOffset" : 0
        },
        {
            "buffer" : 0,
            "byteLength" : 872892,
            "byteOffset" : 872892
        },
        {
            "buffer" : 0,
            "byteLength" : 581928,
            "byteOffset" : 1745784
        },
        {
            "buffer" : 0,
            "byteLength" : 297060,
            "byteOffset" : 2327712
        }
    ],
    "buffers" : [
        {
            "byteLength" : 2624772,
            "uri" : "data:application/octet-stream;base64,"
        }
    ]
}
