{
    "asset" : {
        "generator" : "Khronos glTF Blender I/O v1.2.75",
        "version" : "2.0"
    },
    "scene" : 0,
    "scenes" : [
        {
            "name" : "Scene",
            "nodes" : [
                0
            ]
        }
    ],
    "nodes" : [
        {
            "mesh" : 0,
            "name" : "13301 OnyxCeph3 Export OK"
        }
    ],
    "meshes" : [
        {
            "name" : "13301 OnyxCeph3 Export OK.001",
            "primitives" : [
                {
                    "attributes" : {
                        "POSITION" : 0,
                        "NORMAL" : 1
                    },
                    "indices" : 2
                }
            ]
        }
    ],
    "accessors" : [
        {
            "bufferView" : 0,
            "componentType" : 5126,
            "count" : 85505,
            "max" : [
                44.35001754760742,
                30.006439208984375,
                35.99663543701172
            ],
            "min" : [
                -44.35001754760742,
                -0.9484226107597351,
                -36.005367279052734
            ],
            "type" : "VEC3"
        },
        {
            "bufferView" : 1,
            "componentType" : 5126,
            "count" : 85505,
            "type" : "VEC3"
        },
        {
            "bufferView" : 2,
            "componentType" : 5125,
            "count" : 85509,
            "type" : "SCALAR"
        }
    ],
    "bufferViews" : [
        {
            "buffer" : 0,
            "byteLength" : 1026060,
            "byteOffset" : 0
        },
        {
            "buffer" : 0,
            "byteLength" : 1026060,
            "byteOffset" : 1026060
        },
        {
            "buffer" : 0,
            "byteLength" : 342036,
            "byteOffset" : 2052120
        }
    ],
    "buffers" : [
        {
            "byteLength" : 2394156,
            "uri" : "data:application/octet-stream;base64,"
        }
    ]
}
