{
    "asset" : {
        "generator" : "Khronos glTF Blender I/O v1.2.75",
        "version" : "2.0"
    },
    "scene" : 0,
    "scenes" : [
        {
            "name" : "Scene",
            "nodes" : [
                0
            ]
        }
    ],
    "nodes" : [
        {
            "mesh" : 0,
            "name" : "13562 OnyxCeph3 Export OK",
            "rotation" : [
                0.7069321870803833,
                0,
                0,
                0.7072812914848328
            ]
        }
    ],
    "meshes" : [
        {
            "name" : "13562 OnyxCeph3 Export OK",
            "primitives" : [
                {
                    "attributes" : {
                        "POSITION" : 0,
                        "NORMAL" : 1
                    },
                    "indices" : 2
                }
            ]
        }
    ],
    "accessors" : [
        {
            "bufferView" : 0,
            "componentType" : 5126,
            "count" : 106964,
            "max" : [
                44.35001754760742,
                35.99998474121094,
                1.5937904119491577
            ],
            "min" : [
                -44.35001754760742,
                -35.99998474121094,
                -29.999988555908203
            ],
            "type" : "VEC3"
        },
        {
            "bufferView" : 1,
            "componentType" : 5126,
            "count" : 106964,
            "type" : "VEC3"
        },
        {
            "bufferView" : 2,
            "componentType" : 5125,
            "count" : 107022,
            "type" : "SCALAR"
        }
    ],
    "bufferViews" : [
        {
            "buffer" : 0,
            "byteLength" : 1283568,
            "byteOffset" : 0
        },
        {
            "buffer" : 0,
            "byteLength" : 1283568,
            "byteOffset" : 1283568
        },
        {
            "buffer" : 0,
            "byteLength" : 428088,
            "byteOffset" : 2567136
        }
    ],
    "buffers" : [
        {
            "byteLength" : 2995224,
            "uri" : "data:application/octet-stream;base64,"
        }
    ]
}
