{
    "asset" : {
        "generator" : "Khronos glTF Blender I/O v1.2.75",
        "version" : "2.0"
    },
    "scene" : 0,
    "scenes" : [
        {
            "name" : "Scene",
            "nodes" : [
                0
            ]
        }
    ],
    "nodes" : [
        {
            "mesh" : 0,
            "name" : "13562 OnyxCeph3 Export UK",
            "rotation" : [
                0.7069321870803833,
                0,
                0,
                0.7072812914848328
            ]
        }
    ],
    "meshes" : [
        {
            "name" : "13562 OnyxCeph3 Export UK",
            "primitives" : [
                {
                    "attributes" : {
                        "POSITION" : 0,
                        "NORMAL" : 1
                    },
                    "indices" : 2
                }
            ]
        }
    ],
    "accessors" : [
        {
            "bufferView" : 0,
            "componentType" : 5126,
            "count" : 75779,
            "max" : [
                44.35001754760742,
                31.01740264892578,
                30.00004768371582
            ],
            "min" : [
                -44.35549545288086,
                -35.99998474121094,
                -7.790836334228516
            ],
            "type" : "VEC3"
        },
        {
            "bufferView" : 1,
            "componentType" : 5126,
            "count" : 75779,
            "type" : "VEC3"
        },
        {
            "bufferView" : 2,
            "componentType" : 5125,
            "count" : 75819,
            "type" : "SCALAR"
        }
    ],
    "bufferViews" : [
        {
            "buffer" : 0,
            "byteLength" : 909348,
            "byteOffset" : 0
        },
        {
            "buffer" : 0,
            "byteLength" : 909348,
            "byteOffset" : 909348
        },
        {
            "buffer" : 0,
            "byteLength" : 303276,
            "byteOffset" : 1818696
        }
    ],
    "buffers" : [
        {
            "byteLength" : 2121972,
            "uri" : "data:application/octet-stream;base64,"
        }
    ]
}
