<?xml version="1.0" encoding="UTF-8"?>
<svg id="Ebene_2" data-name="Ebene 2" xmlns="http://www.w3.org/2000/svg" viewBox="0 0 17.45 17.45">
  <defs>
    <style>
      .cls-1 {
        fill: #0094cb;
      }

      .cls-1, .cls-2 {
        stroke-width: 0px;
      }

      .cls-2 {
        fill: #fff;
      }
    </style>
  </defs>
  <g id="Ebene_1-2" data-name="Ebene 1">
    <g>
      <rect class="cls-1" width="17.45" height="17.45" rx=".88" ry=".88"/>
      <path class="cls-2" d="m4.4,13.53V3.92h4.09c1.03,0,1.77.09,2.24.26.47.17.84.48,1.12.92.28.44.42.95.42,1.51,0,.72-.21,1.32-.64,1.79-.42.47-1.06.77-1.9.89.42.25.77.51,1.04.81.27.29.64.81,1.1,1.56l1.17,1.88h-2.32l-1.4-2.09c-.5-.75-.84-1.22-1.02-1.41-.18-.19-.38-.33-.58-.4-.21-.07-.53-.11-.98-.11h-.39v4.01h-1.94Zm1.94-5.55h1.44c.93,0,1.51-.04,1.74-.12.23-.08.41-.21.54-.41.13-.19.2-.43.2-.72,0-.32-.09-.58-.26-.78-.17-.2-.42-.32-.73-.38-.16-.02-.63-.03-1.42-.03h-1.51v2.44Z"/>
    </g>
  </g>
</svg>