<?xml version="1.0" encoding="UTF-8"?>
<svg id="Ebene_2" data-name="Ebene 2" xmlns="http://www.w3.org/2000/svg" viewBox="0 0 27.29 26.52">
  <defs>
    <style>
      .cls-1 {
        fill: #0094cb;
      }

      .cls-1, .cls-2 {
        stroke-width: 0px;
      }

      .cls-2 {
        fill: #fff;
      }
    </style>
  </defs>
  <g id="Ebene_1-2" data-name="Ebene 1">
    <polygon class="cls-2" points="13.29 7.64 7.55 10.12 7.33 17.15 13.22 19.47 19.35 17.17 19.39 10.18 13.29 7.64"/>
    <g>
      <path class="cls-1" d="m13.41,12.94c-.07,0-.13-.01-.2-.04l-5.92-2.39c-.2-.08-.33-.27-.33-.49s.13-.41.33-.49l5.92-2.39c.13-.05.27-.05.39,0l5.92,2.39c.2.08.33.27.33.49s-.13.41-.33.49l-5.92,2.39c-.06.03-.13.04-.2.04Zm-4.51-2.91l4.51,1.82,4.51-1.82-4.51-1.82-4.51,1.82Z"/>
      <path class="cls-1" d="m13.41,20.2c-.07,0-.13-.01-.2-.04l-5.92-2.39c-.2-.08-.33-.27-.33-.49v-7.26c0-.18.09-.34.23-.44.15-.1.33-.12.49-.05l5.92,2.39c.2.08.33.27.33.49v7.26c0,.18-.09.34-.23.44-.09.06-.19.09-.3.09Zm-5.39-3.27l4.87,1.96v-6.12l-4.87-1.96v6.12Z"/>
      <path class="cls-1" d="m13.41,20.2c-.1,0-.21-.03-.3-.09-.15-.1-.23-.26-.23-.44v-7.26c0-.22.13-.41.33-.49l5.92-2.39c.16-.07.35-.05.49.05.15.1.23.26.23.44v7.26c0,.22-.13.41-.33.49l-5.92,2.39c-.06.03-.13.04-.2.04Zm.53-7.43v6.12l4.87-1.96v-6.12l-4.87,1.96Z"/>
    </g>
    <path class="cls-1" d="m20.18,26.52l2.42-3-3.81-.58.41,1.05c-3.9,1.48-8.17,1.24-11.86-.67-.36-.19-.8-.07-1,.28h0c-.21.37-.09.85.29,1.04,4.07,2.12,8.8,2.4,13.12.75l.44,1.14Z"/>
    <path class="cls-1" d="m6.65,0l-2.42,3,3.81.58-.41-1.05c3.9-1.48,8.17-1.24,11.86.67.36.19.8.07,1-.28h0c.21-.37.09-.85-.29-1.04C16.13-.23,11.4-.51,7.09,1.14l-.44-1.14Z"/>
    <path class="cls-1" d="m0,20.42l3,2.42.58-3.81-1.05.41c-1.48-3.9-1.24-8.17.67-11.86.19-.36.07-.8-.28-1h0c-.37-.21-.85-.09-1.04.29C-.23,10.94-.51,15.67,1.14,19.98l-1.14.44Z"/>
    <path class="cls-1" d="m27.29,6.89l-3-2.42-.58,3.81,1.05-.41c1.48,3.9,1.24,8.17-.67,11.86-.19.36-.07.8.28,1h0c.37.21.85.09,1.04-.29,2.12-4.07,2.4-8.8.75-13.12l1.14-.44Z"/>
  </g>
</svg>