<?xml version="1.0" encoding="UTF-8"?>
<svg id="Ebene_2" data-name="Ebene 2" xmlns="http://www.w3.org/2000/svg" viewBox="0 0 21.26 21.57">
  <defs>
    <style>
      .cls-1 {
        fill: #0094cb;
      }

      .cls-1, .cls-2 {
        stroke-width: 0px;
      }

      .cls-2 {
        fill: #fff;
      }
    </style>
  </defs>
  <g id="Ebene_1-2" data-name="Ebene 1">
    <g>
      <polygon class="cls-1" points="10.63 .87 .87 4.8 10.63 8.73 20.39 4.8 10.63 .87"/>
      <path class="cls-1" d="m10.63,9.6c-.11,0-.22-.02-.33-.06L.55,5.61c-.33-.13-.55-.45-.55-.81s.22-.67.55-.81L10.3.06c.21-.08.44-.08.65,0l9.76,3.93c.33.13.55.45.55.81s-.22.67-.55.81l-9.76,3.93c-.1.04-.21.06-.33.06ZM3.2,4.8l7.43,2.99,7.43-2.99-7.43-2.99-7.43,2.99Z"/>
    </g>
    <g>
      <polygon class="cls-2" points=".87 16.77 10.63 20.7 10.63 8.73 .87 4.8 .87 16.77"/>
      <path class="cls-1" d="m10.63,21.57c-.11,0-.22-.02-.33-.06L.55,17.58c-.33-.13-.55-.45-.55-.81V4.8c0-.29.14-.56.38-.72.24-.16.54-.19.81-.09l9.76,3.93c.33.13.55.45.55.81v11.97c0,.29-.14.56-.38.72-.15.1-.32.15-.49.15ZM1.74,16.18l8.02,3.23v-10.09L1.74,6.09v10.09Z"/>
    </g>
    <g>
      <polygon class="cls-2" points="10.63 8.73 20.39 4.8 20.39 16.77 10.63 20.7 10.63 8.73"/>
      <path class="cls-1" d="m10.63,21.57c-.17,0-.34-.05-.49-.15-.24-.16-.38-.43-.38-.72v-11.97c0-.36.22-.67.55-.81l9.76-3.93c.27-.11.57-.08.81.09.24.16.38.43.38.72v11.97c0,.36-.22.67-.55.81l-9.76,3.93c-.1.04-.22.06-.33.06Zm.87-12.25v10.09l8.02-3.23V6.09l-8.02,3.23Z"/>
    </g>
  </g>
</svg>