<?xml version="1.0" encoding="UTF-8"?>
<svg id="Ebene_2" data-name="Ebene 2" xmlns="http://www.w3.org/2000/svg" viewBox="0 0 25.73 25.11">
  <defs>
    <style>
      .cls-1 {
        fill: #0094cb;
        stroke-width: 0px;
      }
    </style>
  </defs>
  <g id="Ebene_1-2" data-name="Ebene 1">
    <g>
      <g>
        <rect class="cls-1" x="3.87" y="15.56" width=".5" height="1"/>
        <path class="cls-1" d="m22.45,25.11h-1.01v-1h1.01v1Zm-2.02,0h-1.01v-1h1.01v1Zm-2.02,0h-1.01v-1h1.01v1Zm-2.02,0h-1.01v-1h1.01v1Zm-2.02,0h-1.01v-1h1.01v1Zm-2.02,0h-1.01v-1h1.01v1Zm-2.02,0h-1.01v-1h1.01v1Zm-2.02,0h-1.01v-1h1.01v1Zm-2.02,0h-1.01v-1h1.01v1Zm-2.02,0h-1.01v-1h1.01v1Zm-2.02,0h-.21c-.38-.03-.73-.16-1.04-.39l.59-.8c.16.11.33.18.48.2h.17s0,1,0,1Zm21.32-.02l-.11-.99c.28-.03.53-.11.74-.25l.53.85c-.34.21-.73.35-1.16.39Zm2.01-1.35l-.91-.42c.07-.15.1-.32.11-.49v-.29h1v.29c0,.32-.07.62-.2.91Zm-25.36-.02c-.12-.29-.18-.59-.18-.89v-.3h1v.3c0,.17.03.34.1.5l-.92.39Zm25.55-2.2h-1v-1.01h1v1.01Zm-24.73,0H0v-1.01h1v1.01Zm24.73-2.02h-1v-1.01h1v1.01Zm-24.73,0H0v-1.01h1v1.01Zm23.71-1.93c-.04-.24-.15-.46-.32-.63l.72-.69c.31.32.51.72.58,1.15l-.98.17Zm-23.7,0l-.98-.18c.08-.43.28-.83.59-1.15l.72.69c-.17.17-.28.39-.32.63Zm22.76-.97c-.09-.02-.17-.03-.26-.03h-.64s0-1,0-1h.64c.16,0,.32.02.48.06l-.21.98Zm-21.82,0l-.21-.98c.16-.03.31-.05.47-.05h.64v1h-.64c-.09,0-.18,0-.26.03Z"/>
        <rect class="cls-1" x="21.09" y="15.8" width="1" height=".5" transform="translate(5.42 37.55) rotate(-89.66)"/>
      </g>
      <path class="cls-1" d="m6.43,18.73c.77,0,1.45-.34,1.93-.87.4.9,1.31,1.54,2.36,1.54.88,0,1.65-.44,2.12-1.11.46.71,1.26,1.18,2.17,1.18,1.05,0,1.96-.63,2.36-1.54.47.53,1.16.87,1.93.87,1.43,0,2.58-1.16,2.58-2.58v-1.87c0-.73-.59-1.33-1.32-1.33h-2.52c-.34,0-.65.13-.88.34-.23-.21-.54-.34-.88-.34h-2.52c-.32,0-.62.11-.85.31-.24-.23-.57-.38-.93-.38h-2.52c-.34,0-.65.13-.88.34-.23-.21-.54-.34-.88-.34h-2.52c-.73,0-1.32.59-1.32,1.33v1.87c0,1.43,1.16,2.58,2.58,2.58Zm11.61-4.82h2.52c.25,0,.44.2.44.44v1.87c0,.94-.76,1.7-1.7,1.7s-1.7-.76-1.7-1.7v-1.87c0-.25.2-.44.44-.44Zm-4.73.44c0-.25.2-.44.44-.44h2.52c.25,0,.44.2.44.44v2.54c0,.94-.76,1.7-1.7,1.7s-1.7-.76-1.7-1.7v-2.54Zm-3.85-.52h2.52c.25,0,.44.2.44.44v2.54c0,.94-.76,1.7-1.7,1.7s-1.7-.76-1.7-1.7v-2.54c0-.25.2-.44.44-.44Zm-4.73.44c0-.25.2-.44.44-.44h2.52c.25,0,.44.2.44.44v1.87c0,.94-.76,1.7-1.7,1.7s-1.7-.76-1.7-1.7v-1.87Z"/>
    </g>
    <g>
      <path class="cls-1" d="m4.13,9.52h-1s.01-1.01.01-1.01h1s-.01,1.01-.01,1.01Zm19.38-.02h-.88s0-1,0-1h.88s.16,1,.16,1c-.05,0-.11,0-.16,0Zm-21.4,0c-.44-.02-.85-.17-1.2-.42l.59-.81c.19.14.42.22.66.23l-.05,1Zm19.52,0h-.2s0-1,0-1h.2s0,1,0,1Zm3.23-.45l-.61-.79c.19-.15.33-.34.41-.57l.94.33c-.14.41-.4.76-.75,1.03ZM.14,8.05c-.09-.25-.14-.51-.14-.78v-.38h1v.38c0,.15.03.29.08.43l-.94.35Zm25.59-1.2h-1v-1h1v1ZM1,5.89H0v-1h1v1Zm24.73-1.04h-1v-1h1v1ZM1,3.89H0v-1h1v1Zm24.73-1.04h-1v-.63c0-.09,0-.17-.03-.26l.98-.21c.03.15.05.31.05.47v.63ZM1.02,1.99L.04,1.8c.08-.43.29-.82.59-1.13l.72.7c-.17.17-.28.39-.32.62Zm23.35-.64c-.17-.17-.39-.28-.62-.33l.19-.98c.43.08.81.29,1.13.59l-.7.71ZM1.96,1.03L1.74.05c.15-.03.31-.05.47-.05h.63v1h-.63c-.09,0-.18,0-.26.03Zm20.89-.03h-1V0h1v1Zm-2,0h-1V0h1v1Zm-2,0h-1V0h1v1Zm-2,0h-1V0h1v1Zm-2,0h-1V0h1v1Zm-2,0h-1V0h1v1Zm-2,0h-1V0h1v1Zm-2,0h-1V0h1v1Zm-2,0h-1V0h1v1Zm-2,0h-1V0h1v1Z"/>
      <path class="cls-1" d="m19.3,6.32c-.77,0-1.45.34-1.93.87-.4-.9-1.31-1.54-2.36-1.54-.88,0-1.65.44-2.12,1.11-.46-.71-1.26-1.18-2.17-1.18-1.05,0-1.96.63-2.36,1.54-.47-.53-1.16-.87-1.93-.87-1.43,0-2.58,1.16-2.58,2.58v1.87c0,.73.59,1.33,1.32,1.33h2.52c.34,0,.65-.13.88-.34.23.21.54.34.88.34h2.52c.32,0,.62-.11.85-.31.24.23.57.38.93.38h2.52c.34,0,.65-.13.88-.34.23.21.54.34.88.34h2.52c.73,0,1.32-.59,1.32-1.33v-1.87c0-1.43-1.16-2.58-2.58-2.58Zm-11.61,4.82h-2.52c-.25,0-.44-.2-.44-.44v-1.87c0-.94.76-1.7,1.7-1.7s1.7.76,1.7,1.7v1.87c0,.25-.2.44-.44.44Zm4.73-.44c0,.25-.2.44-.44.44h-2.52c-.25,0-.44-.2-.44-.44v-2.54c0-.94.76-1.7,1.7-1.7s1.7.76,1.7,1.7v2.54Zm3.85.52h-2.52c-.25,0-.44-.2-.44-.44v-2.54c0-.94.76-1.7,1.7-1.7s1.7.76,1.7,1.7v2.54c0,.25-.2.44-.44.44Zm4.73-.44c0,.25-.2.44-.44.44h-2.52c-.25,0-.44-.2-.44-.44v-1.87c0-.94.76-1.7,1.7-1.7s1.7.76,1.7,1.7v1.87Z"/>
    </g>
  </g>
</svg>