<?xml version="1.0" encoding="UTF-8"?>
<svg id="Ebene_2" data-name="Ebene 2" xmlns="http://www.w3.org/2000/svg" viewBox="0 0 24.73 11.6">
  <defs>
    <style>
      .cls-1 {
        fill: #0094cb;
      }

      .cls-1, .cls-2 {
        stroke-width: 0px;
      }

      .cls-2 {
        fill: #fff;
      }
    </style>
  </defs>
  <g id="Ebene_1-2" data-name="Ebene 1">
    <g>
      <rect class="cls-1" y="3.11" width="24.73" height="8.49" rx="1.72" ry="1.72"/>
      <g>
        <path class="cls-2" d="m18.8,4.97c.94,0,1.7-.76,1.7-1.7v-1.87c0-.25-.2-.44-.44-.44h-2.52c-.25,0-.44.2-.44.44v1.87c0,.94.76,1.7,1.7,1.7Z"/>
        <path class="cls-2" d="m10.22,5.57c.94,0,1.7-.76,1.7-1.7V1.33c0-.25-.2-.44-.44-.44h-2.52c-.25,0-.44.2-.44.44v2.54c0,.94.76,1.7,1.7,1.7Z"/>
        <path class="cls-2" d="m5.93,4.9c.94,0,1.7-.76,1.7-1.7v-1.87c0-.25-.2-.44-.44-.44h-2.52c-.25,0-.44.2-.44.44v1.87c0,.94.76,1.7,1.7,1.7Z"/>
        <path class="cls-1" d="m5.93,5.78c.77,0,1.45-.34,1.93-.87.4.9,1.31,1.54,2.36,1.54.88,0,1.65-.44,2.12-1.11.46.71,1.26,1.18,2.17,1.18,1.05,0,1.96-.63,2.36-1.54.47.53,1.16.87,1.93.87,1.43,0,2.58-1.16,2.58-2.58v-1.87c0-.73-.59-1.33-1.32-1.33h-2.52c-.34,0-.65.13-.88.34-.23-.21-.54-.34-.88-.34h-2.52c-.32,0-.62.11-.85.31-.24-.23-.57-.38-.93-.38h-2.52c-.34,0-.65.13-.88.34-.23-.21-.54-.34-.88-.34h-2.52c-.73,0-1.32.59-1.32,1.33v1.87c0,1.43,1.16,2.58,2.58,2.58ZM17.54.95h2.52c.25,0,.44.2.44.44v1.87c0,.94-.76,1.7-1.7,1.7s-1.7-.76-1.7-1.7v-1.87c0-.25.2-.44.44-.44Zm-4.73.44c0-.25.2-.44.44-.44h2.52c.25,0,.44.2.44.44v2.54c0,.94-.76,1.7-1.7,1.7s-1.7-.76-1.7-1.7V1.4Zm-3.85-.52h2.52c.25,0,.44.2.44.44v2.54c0,.94-.76,1.7-1.7,1.7s-1.7-.76-1.7-1.7V1.33c0-.25.2-.44.44-.44Zm-4.73.44c0-.25.2-.44.44-.44h2.52c.25,0,.44.2.44.44v1.87c0,.94-.76,1.7-1.7,1.7s-1.7-.76-1.7-1.7v-1.87Z"/>
        <path class="cls-2" d="m14.51,5.64c.94,0,1.7-.76,1.7-1.7V1.4c0-.25-.2-.44-.44-.44h-2.52c-.25,0-.44.2-.44.44v2.54c0,.94.76,1.7,1.7,1.7Z"/>
      </g>
    </g>
  </g>
</svg>