{
    "asset" : {
        "generator" : "Khronos glTF Blender I/O v1.2.75",
        "version" : "2.0"
    },
    "scene" : 0,
    "scenes" : [
        {
            "name" : "Scene",
            "nodes" : [
                0
            ]
        }
    ],
    "nodes" : [
        {
            "mesh" : 0,
            "name" : "13689 OnyxCeph3 Export OK"
        }
    ],
    "meshes" : [
        {
            "name" : "13689 OnyxCeph3 Export OK",
            "primitives" : [
                {
                    "attributes" : {
                        "POSITION" : 0,
                        "NORMAL" : 1,
                        "TEXCOORD_0" : 2
                    },
                    "indices" : 3
                }
            ]
        }
    ],
    "accessors" : [
        {
            "bufferView" : 0,
            "componentType" : 5126,
            "count" : 55464,
            "max" : [
                0.09460639953613281,
                29.02066993713379,
                24.459449768066406
            ],
            "min" : [
                -40.80202865600586,
                -31.030799865722656,
                -36.49951171875
            ],
            "type" : "VEC3"
        },
        {
            "bufferView" : 1,
            "componentType" : 5126,
            "count" : 55464,
            "type" : "VEC3"
        },
        {
            "bufferView" : 2,
            "componentType" : 5126,
            "count" : 55464,
            "type" : "VEC2"
        },
        {
            "bufferView" : 3,
            "componentType" : 5123,
            "count" : 56682,
            "type" : "SCALAR"
        }
    ],
    "bufferViews" : [
        {
            "buffer" : 0,
            "byteLength" : 665568,
            "byteOffset" : 0
        },
        {
            "buffer" : 0,
            "byteLength" : 665568,
            "byteOffset" : 665568
        },
        {
            "buffer" : 0,
            "byteLength" : 443712,
            "byteOffset" : 1331136
        },
        {
            "buffer" : 0,
            "byteLength" : 113364,
            "byteOffset" : 1774848
        }
    ],
    "buffers" : [
        {
            "byteLength" : 1888212,
            "uri" : "data:application/octet-stream;base64,"
        }
    ]
}
