{
    "asset" : {
        "generator" : "Khronos glTF Blender I/O v1.2.75",
        "version" : "2.0"
    },
    "scene" : 0,
    "scenes" : [
        {
            "name" : "Scene",
            "nodes" : [
                0,
                1
            ]
        }
    ],
    "nodes" : [
        {
            "mesh" : 0,
            "name" : "13689 OnyxCeph3 Export OK"
        },
        {
            "mesh" : 1,
            "name" : "13689 OnyxCeph3 Export UK"
        }
    ],
    "meshes" : [
        {
            "name" : "13689 OnyxCeph3 Export OK",
            "primitives" : [
                {
                    "attributes" : {
                        "POSITION" : 0,
                        "NORMAL" : 1
                    },
                    "indices" : 2
                }
            ]
        },
        {
            "name" : "13689 OnyxCeph3 Export UK",
            "primitives" : [
                {
                    "attributes" : {
                        "POSITION" : 3,
                        "NORMAL" : 4
                    },
                    "indices" : 5
                }
            ]
        }
    ],
    "accessors" : [
        {
            "bufferView" : 0,
            "componentType" : 5126,
            "count" : 58158,
            "max" : [
                40.80201721191406,
                29.02066993713379,
                24.459449768066406
            ],
            "min" : [
                -40.8020133972168,
                -2.8068299293518066,
                -36.499515533447266
            ],
            "type" : "VEC3"
        },
        {
            "bufferView" : 1,
            "componentType" : 5126,
            "count" : 58158,
            "type" : "VEC3"
        },
        {
            "bufferView" : 2,
            "componentType" : 5123,
            "count" : 58158,
            "type" : "SCALAR"
        },
        {
            "bufferView" : 3,
            "componentType" : 5126,
            "count" : 48732,
            "max" : [
                40.802001953125,
                2.9651167392730713,
                19.855083465576172
            ],
            "min" : [
                -40.80202865600586,
                -31.030799865722656,
                -36.46553421020508
            ],
            "type" : "VEC3"
        },
        {
            "bufferView" : 4,
            "componentType" : 5126,
            "count" : 48732,
            "type" : "VEC3"
        },
        {
            "bufferView" : 5,
            "componentType" : 5123,
            "count" : 48732,
            "type" : "SCALAR"
        }
    ],
    "bufferViews" : [
        {
            "buffer" : 0,
            "byteLength" : 697896,
            "byteOffset" : 0
        },
        {
            "buffer" : 0,
            "byteLength" : 697896,
            "byteOffset" : 697896
        },
        {
            "buffer" : 0,
            "byteLength" : 116316,
            "byteOffset" : 1395792
        },
        {
            "buffer" : 0,
            "byteLength" : 584784,
            "byteOffset" : 1512108
        },
        {
            "buffer" : 0,
            "byteLength" : 584784,
            "byteOffset" : 2096892
        },
        {
            "buffer" : 0,
            "byteLength" : 97464,
            "byteOffset" : 2681676
        }
    ],
    "buffers" : [
        {
            "byteLength" : 2779140,
            "uri" : "data:application/octet-stream;base64,"
        }
    ]
}
