{
    "asset" : {
        "generator" : "Khronos glTF Blender I/O v1.2.75",
        "version" : "2.0"
    },
    "scene" : 0,
    "scenes" : [
        {
            "name" : "Scene",
            "nodes" : [
                0
            ]
        }
    ],
    "nodes" : [
        {
            "mesh" : 0,
            "name" : "13689 OnyxCeph3 Export OK"
        }
    ],
    "meshes" : [
        {
            "name" : "13689 OnyxCeph3 Export OK",
            "primitives" : [
                {
                    "attributes" : {
                        "POSITION" : 0,
                        "NORMAL" : 1
                    },
                    "indices" : 2
                }
            ]
        }
    ],
    "accessors" : [
        {
            "bufferView" : 0,
            "componentType" : 5126,
            "count" : 58158,
            "max" : [
                40.80201721191406,
                29.02066993713379,
                24.459449768066406
            ],
            "min" : [
                -40.8020133972168,
                -2.8068299293518066,
                -36.499515533447266
            ],
            "type" : "VEC3"
        },
        {
            "bufferView" : 1,
            "componentType" : 5126,
            "count" : 58158,
            "type" : "VEC3"
        },
        {
            "bufferView" : 2,
            "componentType" : 5123,
            "count" : 58158,
            "type" : "SCALAR"
        }
    ],
    "bufferViews" : [
        {
            "buffer" : 0,
            "byteLength" : 697896,
            "byteOffset" : 0
        },
        {
            "buffer" : 0,
            "byteLength" : 697896,
            "byteOffset" : 697896
        },
        {
            "buffer" : 0,
            "byteLength" : 116316,
            "byteOffset" : 1395792
        }
    ],
    "buffers" : [
        {
            "byteLength" : 1512108,
            "uri" : "data:application/octet-stream;base64,"
        }
    ]
}
