{
    "asset" : {
        "generator" : "Khronos glTF Blender I/O v1.2.75",
        "version" : "2.0"
    },
    "scene" : 0,
    "scenes" : [
        {
            "name" : "Scene",
            "nodes" : [
                0
            ]
        }
    ],
    "nodes" : [
        {
            "mesh" : 0,
            "name" : "13689 OnyxCeph3 Export UK"
        }
    ],
    "meshes" : [
        {
            "name" : "13689 OnyxCeph3 Export UK",
            "primitives" : [
                {
                    "attributes" : {
                        "POSITION" : 0,
                        "NORMAL" : 1
                    },
                    "indices" : 2
                }
            ]
        }
    ],
    "accessors" : [
        {
            "bufferView" : 0,
            "componentType" : 5126,
            "count" : 48732,
            "max" : [
                40.802001953125,
                2.9651167392730713,
                19.855083465576172
            ],
            "min" : [
                -40.80202865600586,
                -31.030799865722656,
                -36.46553421020508
            ],
            "type" : "VEC3"
        },
        {
            "bufferView" : 1,
            "componentType" : 5126,
            "count" : 48732,
            "type" : "VEC3"
        },
        {
            "bufferView" : 2,
            "componentType" : 5123,
            "count" : 48732,
            "type" : "SCALAR"
        }
    ],
    "bufferViews" : [
        {
            "buffer" : 0,
            "byteLength" : 584784,
            "byteOffset" : 0
        },
        {
            "buffer" : 0,
            "byteLength" : 584784,
            "byteOffset" : 584784
        },
        {
            "buffer" : 0,
            "byteLength" : 97464,
            "byteOffset" : 1169568
        }
    ],
    "buffers" : [
        {
            "byteLength" : 1267032,
            "uri" : "data:application/octet-stream;base64,"
        }
    ]
}
