<?xml version="1.0" encoding="UTF-8"?>
<svg id="Ebene_2" data-name="Ebene 2" xmlns="http://www.w3.org/2000/svg" viewBox="0 0 307.14 45.88">
  <defs>
    <style>
      .cls-1 {
        fill: #8ebae5;
      }

      .cls-2 {
        fill: #00549f;
      }

      .cls-3 {
        fill: #e30066;
      }

      @supports (color: oklch(0% 0 0)) {
        @media (color-gamut: p3) {
          .cls-3 {
            fill: oklch(58.79% 0.265 6.375387870990899);
          }
        }
      }
    </style>
  </defs>
  <g id="Logo">
    <g>
      <path class="cls-1" d="m246.5,45.46h4.34v-9.11h2.32c1.75,0,2.5,1.03,2.57,2.72l.12,4.13c.03.84.12,1.66.54,2.26h4.71v-.18c-.81-.42-.93-1.6-.96-3.86-.06-4.56-.51-6.19-3.47-6.58v-.06c2.44-.51,3.59-2.44,3.59-5.31,0-3.68-2.17-5.55-5.73-5.55h-8.03v21.55Zm4.34-18.35h2.05c1.96,0,3.02,1,3.02,2.99,0,2.32-1.18,3.23-3.26,3.23h-1.81v-6.22Z"/>
      <path class="cls-1" d="m182.43,23.91v15.03c0,5.76,3.35,6.94,6.88,6.94s6.88-1.45,6.88-6.94v-15.03h-4.34v15.03c0,2.14-.51,3.74-2.53,3.74s-2.53-1.6-2.53-3.74v-15.03h-4.34Z"/>
    </g>
    <polygon class="cls-1" points="197.26 23.91 197.26 45.46 201.24 45.46 201.24 30.37 201.3 30.37 206.61 45.46 211.56 45.46 211.56 23.91 207.58 23.91 207.58 38.67 207.52 38.67 202.27 23.91 197.26 23.91"/>
    <rect class="cls-1" x="212.68" y="23.91" width="4.34" height="21.55"/>
    <polygon class="cls-1" points="217.32 23.91 222.27 45.46 227.85 45.46 232.8 23.91 228.3 23.91 225.11 39.85 225.02 39.85 221.97 23.91 217.32 23.91"/>
    <polygon class="cls-1" points="233.19 23.91 233.19 45.46 245.53 45.46 245.53 41.9 237.53 41.9 237.53 36.1 244.77 36.1 244.77 32.54 237.53 32.54 237.53 27.47 245.23 27.47 245.23 23.91 233.19 23.91"/>
    <path class="cls-1" d="m260.62,38.73v.88c0,3.98,1.93,6.28,6.85,6.28s7.48-2.05,7.48-6.61c0-2.62-.84-4.28-4.1-5.7l-3.35-1.45c-1.84-.79-2.23-1.6-2.23-2.93s.51-2.5,2.47-2.5c1.66,0,2.35,1.18,2.35,3.2h4.16v-.6c0-4.13-2.81-5.79-6.67-5.79-4.1,0-6.67,2.14-6.67,6.34,0,3.59,1.78,5.19,5.64,6.52,2.87,1,3.86,1.72,3.86,3.68,0,1.81-1.27,2.66-2.59,2.66-2.29,0-2.87-1.3-2.87-3.32v-.63h-4.34Z"/>
    <rect class="cls-1" x="275.52" y="23.91" width="4.34" height="21.55"/>
    <polygon class="cls-1" points="302.43 23.91 299.41 32.24 299.35 32.24 296.52 23.91 280.43 23.91 280.43 27.47 285.14 27.47 285.14 45.46 289.49 45.46 289.49 27.47 293.15 27.47 297.21 36.98 297.21 45.46 301.56 45.46 301.56 36.98 307.14 23.91 302.43 23.91"/>
    <g>
      <path class="cls-2" d="m144.26,21.95h-7.2V.31h11.81c3.2,0,5.96,2.07,6.86,4.82.83,2.55.12,5.31-1.76,7.28.25.68.49,1.21.73,1.82.52,1.2,1,2.41,1.52,3.6l1.71,4.12h-7.3s-.06-.17-.12-.25c-.29-.64-.55-1.32-.84-1.96l-1.76-4.17c-.7-1.68-1.39-3.28-2.09-4.96.87-.02,1.52.14,2.36-.25.59-.29,1.48-1.01,1.51-2.39-.02-.69-.21-1.2-.67-1.74-.45-.5-1.11-.87-1.97-.89,0,0-2.8,0-2.8,0v16.6Z"/>
      <path class="cls-2" d="m219.47.31v21.64h-7.2v-8.82h-5.04v8.82c-1.31,0-2.71-.01-4.02,0h-3.18V5.32h-5.04v16.63h-7.2V5.32h-5.08v16.63h-7.42c-1.29-3.12-2.66-6.27-3.92-9.38-.14-.65-.29-1.31-.48-1.94v11.32h-7.43c-1.47-3.43-2.89-6.78-4.36-10.26-.51-1.2-.93-2.18-1.45-3.44l-.07-.16-1.14-2.69-1.64-3.83c-.14-.44-.38-.83-.52-1.26h7.41c1.52,3.7,3.06,7.36,4.66,11l.04.09c-.06-.42-.19-.96-.26-1.36V3.58c.01-1.03,0-2.21,0-3.27h7.43c.09.24.15.36.22.55.87,2.05,1.7,4.08,2.57,6.11l1.94,4.43c-.04-.47-.15-.91-.2-1.36V.31h29.13v7.81h5.04V.31h7.2Z"/>
    </g>
    <path class="cls-1" d="m240.35,13.8l2.09-9.73h.06l2.09,9.73h-4.24Zm-14.43,0l2.09-9.73h.06l2.09,9.73h-4.24ZM245.17.31h-5.4l-4.52,17.06L230.74.31h-5.4l-5.73,21.64h4.55l1-4.58h5.76l1,4.58h6.67l1-4.58h5.76l1,4.58h4.55L245.17.31Z"/>
    <path class="cls-1" d="m263.9,7.69c0-3.14-.45-7.69-6.67-7.69s-7.33,4.65-7.33,11.19.82,11.19,7.33,11.19c5.7,0,6.85-4.01,6.85-8.66h-4.34c0,4.65-1.15,5.46-2.72,5.46-1.87,0-2.78-1.18-2.78-7.7,0-6.09.51-8.3,2.72-8.3,1.96,0,2.59,1.36,2.59,4.5h4.34Z"/>
    <polygon class="cls-1" points="264.94 21.95 269.3 21.95 269.3 12.35 274.4 12.35 274.4 21.95 278.76 21.95 278.76 .31 274.4 .31 274.4 8.59 269.3 8.59 269.3 .31 264.94 .31 264.94 21.95"/>
    <polygon class="cls-1" points="279.71 .31 279.71 21.95 292.11 21.95 292.11 18.38 284.07 18.38 284.07 12.56 291.35 12.56 291.35 8.98 284.07 8.98 284.07 3.89 291.8 3.89 291.8 .31 279.71 .31"/>
    <polygon class="cls-1" points="292.75 .31 292.75 21.95 296.76 21.95 296.76 6.8 296.82 6.8 302.15 21.95 307.12 21.95 307.12 .31 303.12 .31 303.12 15.13 303.06 15.13 297.79 .31 292.75 .31"/>
    <rect class="cls-2" x="122.39" y=".28" width="1" height="45.36"/>
    <g>
      <path class="cls-2" d="m77.27,40.26h-.7v.94h.7v3.08c0,.27.02.5.05.68.03.18.1.33.19.43s.22.19.39.24c.17.05.39.07.66.07.16,0,.31,0,.45-.02.14-.01.29-.03.44-.04v-.96s-.1.01-.15.01c-.05,0-.11,0-.16,0-.2,0-.33-.05-.4-.14-.06-.09-.09-.24-.09-.45v-2.91h.8v-.94h-.8v-1.54h-1.38v1.54Zm-4.63-.77h1.12v-1.18h-1.12v1.18Zm1.72,0h1.12v-1.18h-1.12v1.18Zm.26,4.52c0,.15-.03.28-.08.38-.05.1-.12.19-.2.26-.08.07-.17.11-.27.15s-.2.05-.29.05c-.19,0-.32-.07-.4-.22s-.12-.32-.12-.53c0-.24.06-.43.18-.57s.32-.24.6-.3c.09-.02.18-.05.29-.09.11-.04.21-.1.3-.18v1.06Zm-1.28-2.1v-.15c0-.21.05-.38.16-.51.11-.13.27-.19.48-.19.23,0,.4.06.49.17.1.12.14.28.14.49,0,.18-.04.32-.12.41s-.22.17-.43.22l-.78.21c-.24.07-.44.14-.61.23s-.31.19-.42.33-.19.29-.24.47c-.05.18-.08.4-.08.66,0,.18.02.36.07.55.05.18.12.35.22.49s.23.27.4.36c.17.09.37.14.61.14.33,0,.6-.05.81-.14s.4-.28.56-.56h.02c.02.09.04.19.07.28.02.1.06.19.1.27h1.32c-.07-.16-.11-.31-.14-.45-.02-.14-.03-.34-.03-.59v-2.83c0-.24-.03-.46-.07-.66s-.15-.38-.29-.52-.34-.26-.59-.34c-.26-.08-.59-.12-.99-.12-.26,0-.51.03-.74.09s-.43.15-.6.28-.31.3-.41.52-.15.47-.15.78v.13h1.24Zm-4.08-1.65h-.7v.94h.7v3.08c0,.27.02.5.05.68.03.18.1.33.19.43s.22.19.38.24c.17.05.39.07.66.07.16,0,.31,0,.45-.02.14-.01.29-.03.44-.04v-.96s-.1.01-.15.01c-.05,0-.11,0-.16,0-.2,0-.33-.05-.39-.14-.06-.09-.1-.24-.1-.45v-2.91h.8v-.94h-.8v-1.54h-1.38v1.54Zm-2.72,5.38h1.38v-7.14h-1.38v7.14Zm-2.32,0h1.32v-5.38h-1.38v3.57c0,.59-.24.89-.73.89-.21,0-.36-.06-.45-.16-.09-.11-.14-.31-.14-.59v-3.71h-1.38v3.99c0,.54.12.93.36,1.17.24.24.57.36,1.01.36.3,0,.57-.06.8-.18.23-.12.42-.32.57-.58h.02v.63Zm-7.75-7.14v7.14h1.38v-1.57l.49-.64,1.15,2.21h1.52l-1.78-3.26,1.55-2.12h-1.52l-1.39,2.01h-.02v-3.77h-1.38Zm-2.35,5.51c0,.15-.03.28-.08.38s-.12.19-.2.26-.18.11-.28.15-.2.05-.29.05c-.19,0-.32-.07-.4-.22s-.12-.32-.12-.53c0-.24.06-.43.18-.57s.32-.24.6-.3c.09-.02.18-.05.29-.09s.21-.1.3-.18v1.06Zm-1.28-2.1v-.15c0-.21.05-.38.16-.51s.27-.19.48-.19c.23,0,.4.06.5.17s.14.28.14.49c0,.18-.04.32-.12.41s-.22.17-.43.22l-.78.21c-.24.07-.44.14-.61.23s-.31.19-.42.33-.19.29-.24.47-.08.4-.08.66c0,.18.02.36.07.55s.12.35.22.49.23.27.4.36.37.14.61.14c.33,0,.61-.05.82-.14s.39-.28.56-.56h.02c.02.09.04.19.06.28s.06.19.11.27h1.32c-.07-.16-.11-.31-.13-.45s-.04-.34-.04-.59v-2.83c0-.24-.02-.46-.07-.66s-.14-.38-.28-.52-.34-.26-.6-.34-.59-.12-.99-.12c-.26,0-.51.03-.73.09s-.43.15-.6.28-.3.3-.4.52-.15.47-.15.78v.13h1.24Zm-5.84,3.73h1.44v-3.1h2.4v-1.18h-2.4v-1.68h2.55v-1.18h-3.99v7.14Z"/>
      <path class="cls-2" d="m96.35,31v-.21c0-.13.01-.25.03-.38.02-.13.06-.24.11-.35.05-.1.12-.19.21-.25s.2-.09.34-.09.25.03.34.08.16.14.21.25.08.24.1.4.03.34.04.55h-1.41Zm2.73.82v-.31c0-.41-.03-.79-.08-1.12-.05-.34-.15-.62-.3-.86-.15-.24-.35-.42-.6-.55-.26-.13-.58-.19-.98-.19-.47,0-.84.08-1.12.23s-.49.36-.64.62-.25.56-.3.89-.07.68-.07,1.04c0,.33.01.67.04,1.01s.11.65.24.93c.13.28.34.5.62.67s.67.26,1.17.26c.66,0,1.14-.17,1.45-.5.31-.34.47-.82.5-1.44h-1.24c-.04.34-.11.59-.22.76-.11.17-.28.25-.51.25-.13,0-.23-.04-.32-.11-.09-.07-.16-.16-.21-.28-.05-.12-.09-.25-.11-.4-.02-.15-.03-.3-.03-.46v-.43h2.73Zm-8.99,2.48h1.38v-3.57c0-.59.24-.89.73-.89.21,0,.36.06.45.17.09.11.14.31.14.58v3.71h1.38v-3.99c0-.54-.12-.93-.35-1.17-.24-.24-.57-.36-1.01-.36-.61,0-1.04.23-1.31.69h-.02v-2.31h-1.38v7.14Zm-.79-3.44c0-.64-.16-1.15-.48-1.52-.32-.37-.8-.56-1.44-.56-.32,0-.61.04-.88.13-.27.09-.5.24-.69.45-.19.22-.34.51-.45.87-.11.36-.16.82-.16,1.38s.04.99.13,1.35c.09.36.22.65.39.87.17.22.38.37.64.47.26.09.56.14.9.14.73,0,1.26-.19,1.57-.57.32-.38.47-.92.47-1.63h-1.32c0,.44-.05.76-.16.96-.11.2-.28.3-.51.3-.15,0-.28-.04-.37-.11-.1-.07-.17-.18-.22-.33-.05-.15-.09-.35-.11-.59s-.03-.52-.03-.85c0-.31,0-.58.03-.81s.06-.43.11-.58c.05-.15.13-.26.23-.34.1-.08.24-.11.41-.11.13,0,.23.03.31.1.08.06.15.15.19.25.04.1.07.22.09.35.02.13.02.26.02.39h1.32Zm-8.67,1.68v.19c0,.26.03.49.09.7s.16.39.31.54.35.27.61.35c.25.08.58.12.97.12.29,0,.55-.03.8-.1.25-.07.46-.17.64-.32.18-.14.32-.32.41-.53s.15-.46.15-.74c0-.41-.09-.73-.27-.97s-.49-.43-.92-.58l-.83-.28c-.23-.07-.39-.16-.48-.27-.08-.11-.12-.23-.12-.36,0-.19.07-.34.2-.43s.28-.15.45-.15c.23,0,.39.07.47.19s.14.34.14.61h1.24v-.22c0-.49-.15-.86-.45-1.13s-.76-.4-1.39-.4c-.35,0-.66.04-.91.13s-.45.2-.61.35-.28.32-.35.52c-.07.2-.11.4-.11.62,0,.38.1.69.29.93.19.24.48.43.86.57l.97.35c.13.05.25.12.35.21s.15.22.15.4c0,.21-.06.37-.19.48-.13.11-.3.16-.51.16-.23,0-.41-.07-.53-.22-.12-.14-.19-.33-.19-.57v-.18h-1.24Zm-2.19,1.76h1.38v-5.38h-1.38v5.38Zm0-6.04h1.38v-1.18h-1.38v1.18Zm-5.08,6.04h1.38v-3.57c0-.59.24-.89.73-.89.21,0,.36.06.45.17.09.11.14.31.14.58v3.71h1.38v-3.99c0-.54-.12-.93-.36-1.17-.24-.24-.57-.36-1.01-.36-.3,0-.57.06-.8.18-.23.12-.42.32-.57.59h-.02v-.63h-1.32v5.38Zm-2.38,0h1.38v-5.38h-1.38v5.38Zm0-6.04h1.38v-1.18h-1.38v1.18Zm-4.6,6.04h3.78v-1.12h-2.15l2.15-3.2v-1.06h-3.68v1.12h2.05l-2.15,3.2v1.06Zm-2.14,0h1.38v-5.38h-1.38v5.38Zm0-6.04h1.38v-1.18h-1.38v1.18Zm-3.7,2.03c.09-.3.29-.45.59-.45s.51.15.6.45.14.74.14,1.32-.05,1.03-.14,1.33-.29.44-.6.44-.49-.15-.59-.44-.13-.74-.13-1.33.05-1.03.13-1.32m1.38,4.01h1.32v-7.14h-1.38v2.26h-.02c-.15-.21-.31-.37-.49-.48-.18-.11-.4-.16-.66-.16-.57,0-.98.22-1.25.67-.27.44-.4,1.16-.4,2.16s.13,1.72.4,2.17c.27.44.68.66,1.25.66.28,0,.52-.06.7-.16s.36-.29.52-.55h.02v.57Zm-6.28-3.3v-.21c0-.13.01-.25.03-.38.02-.13.06-.24.11-.35.05-.1.12-.19.22-.25s.2-.09.35-.09.26.03.34.08.16.14.21.25.09.24.11.4.03.34.04.55h-1.41Zm2.73.82v-.31c0-.41-.03-.79-.08-1.12-.05-.34-.15-.62-.3-.86-.15-.24-.35-.42-.6-.55-.26-.13-.59-.19-.98-.19-.47,0-.84.08-1.12.23s-.49.36-.64.62-.25.56-.3.89-.07.68-.07,1.04c0,.33.02.67.05,1.01s.11.65.24.93c.13.28.34.5.62.67s.67.26,1.17.26c.66,0,1.14-.17,1.45-.5.31-.34.47-.82.5-1.44h-1.24c-.04.34-.11.59-.22.76-.11.17-.28.25-.51.25-.13,0-.23-.04-.32-.11-.09-.07-.16-.16-.21-.28-.05-.12-.09-.25-.11-.4-.02-.15-.03-.3-.03-.46v-.43h2.73Zm-11.33,2.48h1.32v-5.7h.02l1.27,5.7h1.12l1.27-5.7h.02v5.7h1.32v-7.14h-2.13l-1.03,5.04h-.02l-1.02-5.04h-2.14v7.14Z"/>
      <path class="cls-2" d="m102.06,22.96h1.38v-3.54c0-.32.06-.55.19-.7.13-.15.31-.22.53-.22.19,0,.33.06.41.18.08.12.12.29.12.52v3.76h1.38v-3.54c0-.32.06-.55.19-.7.13-.15.31-.22.53-.22.19,0,.33.06.41.18.08.12.12.29.12.52v3.76h1.38v-3.91c0-.52-.11-.92-.32-1.2-.22-.28-.55-.41-1.01-.41-.33,0-.61.07-.84.22-.24.14-.41.36-.51.65h-.02c-.07-.28-.22-.49-.43-.64-.22-.15-.48-.22-.81-.22-.3,0-.56.05-.77.16-.22.11-.41.28-.59.53h-.02v-.55h-1.32v5.38Zm-2.3,0h1.32v-5.38h-1.38v3.57c0,.59-.24.89-.73.89-.21,0-.36-.06-.45-.16-.09-.11-.14-.31-.14-.59v-3.71h-1.38v3.99c0,.54.12.93.35,1.17.24.24.58.36,1.02.36.3,0,.57-.06.8-.19.23-.12.42-.32.57-.59h.02v.63Zm-6.19,0h1.38v-3.23c0-.18.03-.33.09-.45s.14-.22.24-.3.21-.13.33-.16.24-.05.36-.05c.07,0,.14,0,.21,0s.14,0,.21.01v-1.32s-.08-.01-.12-.02c-.04,0-.08,0-.12,0-.29,0-.53.08-.73.24s-.37.36-.51.62h-.02v-.72h-1.32v5.38Zm-2.79-5.38h-.7v.94h.7v3.08c0,.27.02.5.05.68.03.18.09.32.18.44s.22.19.38.23c.17.05.39.07.66.07.16,0,.31,0,.45-.02.14-.01.29-.03.44-.04v-.96s-.1.01-.15.02c-.05,0-.11,0-.16,0-.2,0-.33-.05-.39-.14-.06-.09-.09-.24-.09-.45v-2.91h.8v-.94h-.8v-1.54h-1.38v1.54Zm-5.38,5.38h1.38v-3.57c0-.59.24-.89.73-.89.21,0,.36.06.45.16.09.11.14.31.14.59v3.71h1.38v-3.99c0-.54-.12-.93-.35-1.17-.24-.24-.57-.36-1.01-.36-.3,0-.57.06-.8.19-.23.12-.42.32-.57.59h-.02v-.63h-1.32v5.38Zm-3.53-3.3v-.21c0-.13.01-.25.03-.38.02-.13.06-.24.11-.34.05-.1.12-.19.22-.25s.2-.1.35-.1.26.03.34.09.16.14.21.25.09.24.11.4.03.34.04.55h-1.41Zm2.73.82v-.31c0-.41-.03-.79-.08-1.12-.05-.34-.15-.62-.3-.86-.15-.24-.35-.42-.6-.55-.26-.13-.59-.2-.99-.2-.47,0-.84.08-1.12.23s-.49.36-.64.62-.25.56-.3.89-.07.68-.07,1.04c0,.33.01.67.05,1.01s.11.65.24.93c.13.28.34.5.62.68s.67.26,1.17.26c.66,0,1.14-.17,1.45-.51.31-.34.47-.82.5-1.45h-1.24c-.04.34-.11.59-.22.76-.11.17-.28.25-.51.25-.13,0-.23-.03-.32-.1-.09-.07-.16-.16-.21-.28-.05-.12-.09-.25-.11-.4-.02-.15-.03-.31-.03-.47v-.43h2.73Zm-8.44,2.48h3.78v-1.12h-2.15l2.15-3.2v-1.06h-3.68v1.12h2.05l-2.15,3.2v1.06Zm-4.79,0h1.38v-3.57c0-.59.24-.89.73-.89.21,0,.36.06.45.16.09.11.14.31.14.59v3.71h1.38v-3.99c0-.54-.12-.93-.35-1.17-.24-.24-.57-.36-1.02-.36-.3,0-.57.06-.8.19-.23.12-.42.32-.57.59h-.02v-.63h-1.32v5.38Zm-3.53-3.3v-.21c0-.13.01-.25.03-.38.02-.13.06-.24.11-.34.05-.1.12-.19.22-.25s.2-.1.35-.1.26.03.35.09.16.14.21.25.09.24.1.4.03.34.04.55h-1.41Zm2.73.82v-.31c0-.41-.03-.79-.08-1.12-.05-.34-.15-.62-.3-.86-.15-.24-.35-.42-.61-.55-.26-.13-.59-.2-.98-.2-.47,0-.84.08-1.12.23s-.49.36-.65.62-.25.56-.3.89-.07.68-.07,1.04c0,.33.02.67.05,1.01s.11.65.24.93c.13.28.34.5.62.68s.67.26,1.17.26c.66,0,1.14-.17,1.45-.51.31-.34.47-.82.5-1.45h-1.24c-.04.34-.11.59-.22.76-.11.17-.28.25-.51.25-.13,0-.23-.03-.32-.1-.09-.07-.16-.16-.21-.28-.05-.12-.09-.25-.11-.4-.02-.15-.03-.31-.03-.47v-.43h2.73Zm-6.34,2.48h1.38v-5.38h-1.38v5.38Zm0-6.04h1.38v-1.18h-1.38v1.18Zm-3.7,2.02c.09-.3.29-.44.59-.44s.51.15.6.44.14.74.14,1.33-.05,1.03-.14,1.32-.29.44-.6.44-.49-.15-.59-.44-.13-.74-.13-1.32.05-1.03.13-1.33m1.38,4.02h1.32v-7.14h-1.38v2.26h-.02c-.15-.21-.31-.37-.49-.48-.18-.11-.4-.16-.66-.16-.57,0-.98.22-1.25.66-.27.44-.4,1.17-.4,2.17s.13,1.72.4,2.16c.27.44.68.66,1.25.66.28,0,.52-.06.7-.16s.36-.29.52-.55h.02v.57Zm-6.28-3.3v-.21c0-.13.01-.25.03-.38.02-.13.06-.24.11-.34.05-.1.12-.19.22-.25s.2-.1.35-.1.26.03.34.09.16.14.21.25.09.24.11.4.03.34.04.55h-1.41Zm2.73.82v-.31c0-.41-.03-.79-.08-1.12-.05-.34-.15-.62-.3-.86-.15-.24-.35-.42-.6-.55-.26-.13-.59-.2-.98-.2-.47,0-.84.08-1.12.23s-.49.36-.64.62-.25.56-.3.89-.07.68-.07,1.04c0,.33.02.67.05,1.01s.11.65.24.93c.13.28.34.5.62.68s.67.26,1.17.26c.66,0,1.14-.17,1.45-.51.31-.34.47-.82.5-1.45h-1.24c-.04.34-.11.59-.22.76-.11.17-.28.25-.51.25-.13,0-.23-.03-.32-.1-.09-.07-.16-.16-.21-.28-.05-.12-.09-.25-.11-.4-.02-.15-.03-.31-.03-.47v-.43h2.73Zm-11.33,2.48h1.32v-5.7h.02l1.27,5.7h1.12l1.27-5.7h.02v5.7h1.32v-7.14h-2.13l-1.03,5.04h-.02l-1.02-5.04h-2.14v7.14Z"/>
      <path class="cls-2" d="m100.55,9.86v.19c0,.26.03.49.09.7s.16.39.31.54.35.26.6.35.58.12.97.12c.29,0,.55-.04.8-.11s.46-.18.63-.31.31-.32.41-.53.15-.46.15-.74c0-.41-.09-.73-.27-.97s-.49-.43-.92-.57l-.83-.28c-.23-.07-.39-.16-.47-.27s-.12-.23-.12-.36c0-.19.06-.34.19-.44s.28-.14.45-.14c.23,0,.38.06.47.19s.13.34.13.61h1.24v-.22c0-.49-.15-.86-.45-1.13s-.76-.4-1.39-.4c-.35,0-.65.04-.9.13s-.45.2-.61.35-.28.32-.35.52-.11.4-.11.62c0,.38.1.69.29.93s.48.43.86.57l.97.35c.13.05.25.12.35.22s.15.22.15.4c0,.21-.06.37-.19.48s-.3.16-.51.16c-.23,0-.41-.07-.53-.22s-.18-.33-.18-.56v-.18h-1.24Zm-3.31-1.54v-.21c0-.13.01-.25.03-.38.02-.13.06-.24.11-.34.05-.1.12-.19.21-.25s.2-.1.34-.1.25.03.34.09.16.14.21.25.08.24.1.4.03.34.04.55h-1.41Zm2.73.82v-.31c0-.41-.03-.79-.08-1.12-.05-.34-.15-.62-.3-.86-.15-.24-.35-.42-.6-.55-.26-.13-.58-.2-.98-.2-.47,0-.84.08-1.12.23s-.49.36-.64.62-.25.56-.3.89-.07.68-.07,1.04c0,.33.01.67.04,1.01s.11.65.24.93c.13.28.34.5.62.68s.67.26,1.17.26c.66,0,1.14-.17,1.45-.51.31-.34.47-.82.5-1.45h-1.24c-.04.34-.11.59-.22.76-.11.17-.28.25-.51.25-.13,0-.23-.03-.32-.1-.09-.07-.16-.16-.21-.28-.05-.12-.09-.25-.11-.4-.02-.15-.03-.31-.03-.47v-.43h2.73Zm-6.34,2.48h1.38v-7.14h-1.38v7.14Zm-2.41,0h1.38v-7.14h-1.38v7.14Zm-3.56-3.3v-.21c0-.13.01-.25.03-.38.02-.13.06-.24.11-.34.05-.1.12-.19.21-.25s.2-.1.34-.1.25.03.34.09.16.14.21.25.08.24.1.4.03.34.04.55h-1.41Zm2.73.82v-.31c0-.41-.03-.79-.08-1.12-.05-.34-.15-.62-.3-.86-.15-.24-.35-.42-.6-.55-.26-.13-.58-.2-.98-.2-.47,0-.84.08-1.12.23s-.49.36-.64.62-.25.56-.3.89-.07.68-.07,1.04c0,.33.01.67.04,1.01s.11.65.24.93c.13.28.34.5.62.68s.67.26,1.17.26c.66,0,1.14-.17,1.45-.51.31-.34.47-.82.5-1.45h-1.24c-.04.34-.11.59-.22.76-.11.17-.28.25-.51.25-.13,0-.23-.03-.32-.1-.09-.07-.16-.16-.21-.28-.05-.12-.09-.25-.11-.4-.02-.15-.03-.31-.03-.47v-.43h2.73Zm-6.25,2.48h1.32v-5.38h-1.38v3.57c0,.59-.24.89-.73.89-.21,0-.36-.06-.45-.16-.09-.11-.14-.31-.14-.59v-3.71h-1.38v3.99c0,.54.12.93.35,1.17.24.24.57.36,1.02.36.3,0,.57-.06.8-.19.23-.12.42-.32.57-.59h.02v.63Zm-7.49-1.76v.19c0,.26.03.49.09.7s.16.39.32.54.35.26.6.35c.25.08.58.12.97.12.29,0,.55-.04.8-.11.25-.07.46-.18.63-.31.18-.14.32-.32.41-.53s.15-.46.15-.74c0-.41-.09-.73-.27-.97s-.49-.43-.92-.57l-.83-.28c-.23-.07-.39-.16-.47-.27-.08-.11-.12-.23-.12-.36,0-.19.06-.34.19-.44s.28-.14.45-.14c.23,0,.39.06.48.19s.13.34.13.61h1.24v-.22c0-.49-.15-.86-.45-1.13s-.76-.4-1.39-.4c-.35,0-.65.04-.9.13s-.46.2-.62.35-.28.32-.35.52c-.07.2-.11.4-.11.62,0,.38.1.69.29.93.19.24.48.43.86.57l.97.35c.13.05.25.12.35.22s.15.22.15.4c0,.21-.06.37-.19.48-.13.11-.3.16-.51.16-.23,0-.41-.07-.53-.22-.12-.14-.18-.33-.18-.56v-.18h-1.24Zm-2.19,1.76h1.38v-5.38h-1.38v5.38Zm0-6.04h1.38v-1.18h-1.38v1.18Zm-2.74,4.51h-.02l-.77-3.85h-1.44l1.39,5.38h1.6l1.35-5.38h-1.38l-.73,3.85Zm-5.39-1.92c.01-.23.05-.43.1-.6s.12-.3.22-.39c.1-.09.23-.14.4-.14.28,0,.47.15.58.44.11.29.16.78.16,1.45s-.05,1.16-.16,1.45c-.11.29-.3.44-.58.44-.17,0-.31-.05-.4-.14-.1-.09-.17-.22-.22-.39s-.08-.37-.1-.6c-.01-.23-.02-.49-.02-.76s0-.53.02-.76m-1.3,2c.07.35.18.65.34.89s.38.42.65.54c.27.12.62.17,1.03.16.39,0,.73-.06.99-.19s.49-.3.65-.54c.17-.24.29-.53.36-.89.07-.35.11-.76.11-1.22s-.03-.88-.1-1.24c-.07-.36-.18-.65-.34-.89s-.38-.42-.65-.53c-.27-.12-.62-.17-1.03-.17-.39,0-.73.06-.99.19s-.49.3-.65.54c-.17.24-.29.53-.36.89-.07.35-.11.76-.11,1.22s.03.89.1,1.24m-2.33,1.45h1.38v-5.38h-1.38v5.38Zm0-6.04h1.38v-1.18h-1.38v1.18Zm-3.7,2.02c.09-.3.28-.44.59-.44s.51.15.6.44.13.74.13,1.33-.04,1.03-.13,1.32-.29.44-.6.44-.49-.15-.59-.44-.14-.74-.14-1.32.05-1.03.14-1.33m1.38,4.02h1.32v-7.14h-1.38v2.26h-.02c-.15-.21-.31-.37-.49-.48s-.4-.16-.66-.16c-.57,0-.98.22-1.25.67s-.4,1.16-.4,2.16.13,1.72.4,2.16.68.66,1.25.66c.28,0,.51-.06.7-.16s.36-.29.51-.55h.02v.57Zm-5.06,0h1.32v-5.38h-1.38v3.57c0,.59-.24.89-.73.89-.21,0-.36-.06-.45-.16s-.14-.31-.14-.59v-3.71h-1.38v3.99c0,.54.12.93.36,1.17s.57.36,1.01.36c.3,0,.57-.06.8-.19s.42-.32.57-.59h.02v.63Zm-8.84,0h1.5l.33-1.51h1.9l.33,1.51h1.5l-1.89-7.14h-1.78l-1.89,7.14Zm2.77-5.9h.02l.69,3.21h-1.4l.69-3.21Z"/>
      <path class="cls-3" d="m10.45,43.04c-1.02,0-1.85-.83-1.85-1.85s.83-1.85,1.85-1.85,1.85.83,1.85,1.85-.83,1.85-1.85,1.85M28.15,2.88c1.02,0,1.85.83,1.85,1.85s-.83,1.85-1.85,1.85-1.85-.83-1.85-1.85.83-1.85,1.85-1.85m9.84,12.39h-12.6c-.38,0-.74.15-1.01.42l-11.5,11.65c-.13.14-.31.21-.5.21H3.71c-.39,0-.71-.32-.71-.71v-7.67c0-.39.32-.71.71-.71h9.68c.78,0,1.42-.63,1.42-1.42V6.94c0-.39.32-.71.71-.71h8.46c.69,1.93,2.67,3.24,4.9,2.89,1.78-.28,3.26-1.67,3.63-3.43.6-2.87-1.58-5.4-4.35-5.4-1.93,0-3.57,1.23-4.19,2.95h-10.74c-.78,0-1.42.63-1.42,1.42v10.11c0,.39-.32.71-.71.71H1.42c-.78,0-1.42.63-1.42,1.42v12.25c0,.78.63,1.42,1.42,1.42h11.93c.38,0,.74-.15,1.01-.42l11.5-11.65c.13-.14.32-.21.5-.21h9.35c.39,0,.71.32.71.71v7.99c0,.39-.32.71-.71.71h-10.47c-.78,0-1.42.63-1.42,1.42v9.9c0,.39-.32.71-.71.71h-8.47c-.69-1.93-2.67-3.24-4.9-2.89-1.78.28-3.26,1.67-3.63,3.43-.6,2.87,1.58,5.4,4.35,5.4,1.93,0,3.57-1.23,4.19-2.95h10.76c.78,0,1.42-.63,1.42-1.42v-9.9c0-.39.32-.71.71-.71h10.47c.78,0,1.42-.63,1.42-1.42v-12.56c0-.78-.63-1.42-1.42-1.42"/>
    </g>
  </g>
</svg>