<?xml version="1.0" encoding="UTF-8"?>
<svg id="Ebene_2" data-name="Ebene 2" xmlns="http://www.w3.org/2000/svg" viewBox="0 0 359.62 125.77">
  <defs>
    <style>
      .cls-1 {
        fill: #00549f;
      }

      .cls-1, .cls-2 {
        stroke-width: 0px;
      }
    </style>
  </defs>
  <g id="Ebene_1-2" data-name="Ebene 1">
    <rect class="cls-1" x="126.1" y="98.85" width="233.52" height="26.92"/>
    <path class="cls-1" d="m140.93,61.14h-5.71c-1.02-6.91-3.14-13.46-6.19-19.48l3.55-2.04c1.45-.83,1.95-2.67,1.12-4.12l-6.75-11.78c-.83-1.45-2.67-1.95-4.12-1.12l-5.3,3.04c-4.85-4.93-10.48-9.08-16.7-12.25l1.25-6.45c.32-1.64-.75-3.22-2.39-3.53l-13.33-2.57c-1.64-.32-3.22.75-3.53,2.39l-.78,4.04c-3.31-.53-6.71-.82-10.17-.82s-6.66.26-9.88.76l-.77-3.98c-.32-1.64-1.9-2.71-3.53-2.39l-13.33,2.57c-1.64.32-2.71,1.9-2.39,3.53l1.22,6.31c-6.28,3.16-11.98,7.32-16.87,12.28l-5.11-2.93c-1.45-.83-3.29-.33-4.12,1.12l-6.75,11.78c-.83,1.45-.33,3.29,1.12,4.12l3.33,1.91c-3.08,6.05-5.23,12.64-6.26,19.6H3.12c-1.67,0-3.02,1.36-3.02,3.03v13.58c.01,1.67,1.37,3.02,3.03,3.01h13.58c1.67-.01,3.02-1.37,3.01-3.03v-13.58c-.01-1.67-1.37-3.02-3.03-3.01h-2.31c.96-5.92,2.82-11.53,5.42-16.71l3.43,1.97c1.45.83,3.29.33,4.12-1.12l6.75-11.78c.83-1.45.33-3.29-1.12-4.12l-1.46-.84c3.81-3.66,8.11-6.82,12.8-9.35l.21,1.11c.32,1.64,1.9,2.71,3.53,2.39l13.33-2.57c1.64-.32,2.71-1.9,2.39-3.53l-.71-3.66c2.87-.44,5.8-.66,8.78-.66s6.11.25,9.07.71l-.7,3.62c-.32,1.64.75,3.22,2.39,3.53l13.33,2.57c1.64.32,3.22-.75,3.53-2.39l.19-.96c4.63,2.53,8.88,5.68,12.64,9.32l-1.28.73c-1.45.83-1.95,2.67-1.12,4.12l6.75,11.78c.83,1.45,2.67,1.95,4.12,1.12l3.2-1.84c2.57,5.15,4.4,10.72,5.35,16.59h-2.01c-1.67,0-3.02,1.35-3.02,3.01v13.58c-.01,1.67,1.34,3.02,3,3.02h13.58c1.67.01,3.02-1.34,3.02-3v-13.58c.01-1.67-1.34-3.02-3-3.02Z"/>
    <g>
      <path class="cls-2" d="m174.01,17.76c0-2.72.42-5.14,1.27-7.25.85-2.11,2.01-3.9,3.48-5.35,1.47-1.46,3.19-2.56,5.16-3.31,1.97-.75,4.06-1.13,6.26-1.13s4.3.38,6.26,1.13,3.69,1.86,5.16,3.31c1.47,1.46,2.63,3.24,3.48,5.35s1.27,4.53,1.27,7.25-.42,5.14-1.27,7.25c-.85,2.11-2.01,3.9-3.48,5.35-1.47,1.46-3.19,2.56-5.16,3.31s-4.06,1.13-6.26,1.13-4.3-.38-6.26-1.13c-1.97-.75-3.69-1.86-5.16-3.31-1.47-1.46-2.63-3.24-3.48-5.35-.85-2.11-1.27-4.53-1.27-7.25Zm7.49-.05c0,1.7.22,3.21.67,4.54s1.07,2.44,1.87,3.34,1.73,1.58,2.78,2.04,2.19.7,3.41.7,2.3-.23,3.34-.7c1.04-.46,1.95-1.14,2.74-2.04s1.41-2.01,1.87-3.34.7-2.84.7-4.54-.23-3.19-.7-4.49-1.09-2.39-1.87-3.29c-.78-.9-1.7-1.58-2.74-2.04-1.04-.46-2.15-.7-3.34-.7s-2.35.23-3.41.7-1.98,1.14-2.78,2.04c-.8.9-1.42,1.99-1.87,3.29s-.67,2.79-.67,4.49Z"/>
      <path class="cls-2" d="m218.08,34.56h-7.1V10.56h7.1v2.06c1.5-1.54,3.38-2.3,5.62-2.3.38,0,.79.02,1.22.07s.86.14,1.27.26l-.72,5.81c-.42-.13-.91-.22-1.49-.29-.58-.06-1.07-.1-1.49-.1-2.02,0-3.49.77-4.42,2.3v16.18Z"/>
      <path class="cls-2" d="m231.13,16.18h-3.12v-5.62h3.12v-4.56l7.1-4.08v8.64h4.7v5.62h-4.7v9.84c0,.77.2,1.38.6,1.85.4.46.94.7,1.61.7.35,0,.78-.06,1.27-.19.5-.13.92-.35,1.27-.67l1.87,5.28c-.8.64-1.75,1.1-2.86,1.39-1.1.29-2.17.43-3.19.43-2.3,0-4.16-.73-5.57-2.18-1.41-1.46-2.11-3.53-2.11-6.22v-10.22Z"/>
      <path class="cls-2" d="m254.6,34.56h-7.1V4.08l7.1-4.08v13.34c1.66-2.02,3.86-3.02,6.58-3.02,1.22,0,2.33.21,3.34.62,1.01.42,1.88,1.03,2.62,1.85.74.82,1.31,1.81,1.73,2.98.42,1.17.62,2.52.62,4.06v14.74h-7.1v-14.26c0-1.34-.3-2.38-.91-3.12-.61-.74-1.42-1.1-2.45-1.1-1.31,0-2.38.56-3.19,1.68-.82,1.12-1.22,2.69-1.22,4.7v12.1Z"/>
      <path class="cls-2" d="m273.32,22.61c0-1.98.32-3.74.96-5.26.64-1.52,1.51-2.8,2.62-3.84,1.1-1.04,2.38-1.83,3.84-2.38s3.02-.82,4.68-.82,3.24.27,4.73.82,2.78,1.34,3.89,2.38c1.1,1.04,1.98,2.32,2.62,3.84.64,1.52.96,3.27.96,5.26s-.32,3.68-.96,5.18c-.64,1.5-1.51,2.78-2.62,3.82-1.1,1.04-2.4,1.83-3.89,2.38-1.49.54-3.06.82-4.73.82s-3.22-.27-4.68-.82c-1.46-.54-2.74-1.34-3.84-2.38-1.1-1.04-1.98-2.31-2.62-3.82-.64-1.5-.96-3.23-.96-5.18Zm7.1-.14c0,2.11.49,3.74,1.46,4.87.98,1.14,2.17,1.7,3.58,1.7s2.6-.57,3.58-1.7c.98-1.14,1.46-2.76,1.46-4.87s-.49-3.58-1.46-4.7c-.98-1.12-2.17-1.68-3.58-1.68s-2.6.56-3.58,1.68c-.98,1.12-1.46,2.69-1.46,4.7Z"/>
      <path class="cls-2" d="m190.24,74.32c1.54,0,2.96-.4,4.27-1.2,1.31-.8,2.35-1.97,3.12-3.5l6.1,4.03c-1.44,2.34-3.34,4.11-5.71,5.33-2.37,1.22-4.98,1.82-7.82,1.82-2.24,0-4.34-.38-6.29-1.13-1.95-.75-3.67-1.86-5.14-3.31-1.47-1.46-2.63-3.24-3.48-5.35-.85-2.11-1.27-4.53-1.27-7.25s.42-5.14,1.27-7.25c.85-2.11,2.01-3.9,3.48-5.35,1.47-1.46,3.18-2.56,5.14-3.31,1.95-.75,4.05-1.13,6.29-1.13,2.85,0,5.46.61,7.82,1.82s4.27,2.99,5.71,5.33l-6.1,4.03c-.77-1.54-1.81-2.7-3.12-3.5-1.31-.8-2.74-1.2-4.27-1.2-1.22,0-2.35.23-3.41.7s-1.98,1.14-2.78,2.04c-.8.9-1.42,1.99-1.87,3.29s-.67,2.79-.67,4.49.22,3.21.67,4.54,1.07,2.44,1.87,3.34,1.73,1.58,2.78,2.04,2.19.7,3.41.7Z"/>
      <path class="cls-2" d="m218.17,56.32c1.41,0,2.73.19,3.96.58,1.23.38,2.3.94,3.22,1.68.91.74,1.62,1.64,2.14,2.71.51,1.07.77,2.3.77,3.67v15.6h-7.1v-2.3c-.74.83-1.66,1.46-2.76,1.9-1.1.43-2.26.65-3.48.65-1.12,0-2.18-.17-3.19-.5s-1.89-.82-2.64-1.46c-.75-.64-1.34-1.43-1.78-2.38-.43-.94-.65-2.01-.65-3.19s.25-2.3.74-3.26,1.18-1.76,2.06-2.4c.88-.64,1.92-1.13,3.12-1.46,1.2-.34,2.5-.5,3.91-.5.7,0,1.45.04,2.23.12s1.59.2,2.42.36v-.72c0-.96-.28-1.75-.84-2.38-.56-.62-1.37-.94-2.42-.94-.77,0-1.53.18-2.28.53-.75.35-1.35.86-1.8,1.54l-5.47-3.79c1.12-1.34,2.57-2.35,4.34-3.02,1.78-.67,3.61-1.01,5.5-1.01Zm2.98,17.09v-2.83c-.74-.13-1.4-.22-1.99-.29-.59-.06-1.11-.1-1.56-.1-1.18,0-2.1.22-2.76.67-.66.45-.98,1.01-.98,1.68s.34,1.3,1.01,1.78c.67.48,1.57.72,2.69.72.8,0,1.55-.14,2.26-.41.7-.27,1.15-.68,1.34-1.22Z"/>
      <path class="cls-2" d="m254.56,80.56h-7.1v-14.26c0-1.34-.28-2.38-.84-3.12-.56-.74-1.32-1.1-2.28-1.1-1.22,0-2.22.56-3,1.68s-1.18,2.69-1.18,4.7v12.1h-7.1v-24h7.1v2.69c1.6-1.95,3.71-2.93,6.34-2.93,1.57,0,2.97.38,4.2,1.13,1.23.75,2.18,1.85,2.86,3.29.8-1.44,1.83-2.54,3.1-3.29,1.26-.75,2.68-1.13,4.25-1.13,1.15,0,2.22.21,3.22.62.99.42,1.85,1.03,2.57,1.85.72.82,1.28,1.81,1.68,2.98.4,1.17.6,2.52.6,4.06v14.74h-7.1v-14.26c0-1.34-.28-2.38-.84-3.12-.56-.74-1.32-1.1-2.28-1.1-1.22,0-2.22.56-3,1.68-.79,1.12-1.18,2.69-1.18,4.7v12.1Z"/>
      <path class="cls-2" d="m280.86,87.04l-7.1,4.08v-34.56h7.1v1.73c1.66-1.31,3.57-1.97,5.71-1.97,1.38,0,2.67.27,3.89.82s2.28,1.34,3.19,2.38,1.63,2.32,2.16,3.84c.53,1.52.79,3.27.79,5.26s-.26,3.68-.79,5.18c-.53,1.5-1.25,2.78-2.16,3.82-.91,1.04-1.98,1.83-3.19,2.38-1.22.54-2.51.82-3.89.82-2.14,0-4.05-.66-5.71-1.97v8.21Zm0-13.97c.93,1.31,2.16,1.97,3.7,1.97,1.38,0,2.54-.57,3.5-1.7s1.44-2.76,1.44-4.87-.48-3.58-1.44-4.7-2.13-1.68-3.5-1.68c-1.54,0-2.77.64-3.7,1.92v9.07Z"/>
      <path class="cls-2" d="m315.32,56.56h7.1v24h-7.1v-2.78c-1.66,2.02-3.86,3.02-6.58,3.02-1.18,0-2.29-.21-3.31-.62-1.02-.42-1.9-1.03-2.64-1.85-.74-.82-1.31-1.81-1.73-2.98-.42-1.17-.62-2.52-.62-4.06v-14.74h7.1v14.26c0,1.34.3,2.38.91,3.12.61.74,1.42,1.1,2.45,1.1,1.31,0,2.38-.56,3.19-1.68.82-1.12,1.22-2.69,1.22-4.7v-12.1Z"/>
      <path class="cls-2" d="m334.19,63.66c0,.51.28.92.84,1.22.56.3,1.26.59,2.09.86s1.73.56,2.69.86c.96.3,1.86.72,2.69,1.25.83.53,1.53,1.21,2.09,2.04.56.83.84,1.9.84,3.22,0,1.22-.25,2.3-.74,3.24-.5.94-1.18,1.75-2.04,2.4-.86.66-1.87,1.16-3.02,1.51s-2.38.53-3.7.53c-1.95,0-3.77-.38-5.45-1.15-1.68-.77-3.11-1.89-4.3-3.36l5.47-3.79c1.06,1.7,2.46,2.54,4.22,2.54.67,0,1.25-.17,1.73-.5.48-.34.72-.73.72-1.18s-.28-.82-.84-1.13c-.56-.3-1.26-.6-2.09-.89-.83-.29-1.73-.61-2.69-.96-.96-.35-1.86-.81-2.69-1.37-.83-.56-1.53-1.27-2.09-2.14-.56-.86-.84-1.94-.84-3.22,0-1.15.23-2.17.7-3.07.46-.9,1.1-1.66,1.9-2.3.8-.64,1.75-1.13,2.86-1.46,1.1-.34,2.28-.5,3.53-.5,1.73,0,3.37.32,4.92.96,1.55.64,2.89,1.6,4.01,2.88l-5.47,3.79c-.48-.64-1.02-1.11-1.61-1.42-.59-.3-1.18-.46-1.75-.46-.64,0-1.13.16-1.46.48-.34.32-.5.69-.5,1.1Z"/>
    </g>
    <g>
      <path class="cls-1" d="m13.64,125.74l-4.56-9.35h-3.91v9.35H0v-26.6h8.06c1.65,0,3.14.18,4.48.53,1.34.36,2.49.89,3.44,1.6s1.68,1.6,2.19,2.68c.51,1.08.76,2.34.76,3.78,0,2.03-.43,3.69-1.29,4.98-.86,1.29-2.07,2.24-3.61,2.85l4.98,10.18h-5.36Zm-8.47-22v8.06h3.15c1.72,0,3.05-.33,3.99-1.01.94-.67,1.41-1.69,1.41-3.06s-.47-2.34-1.41-3-2.27-.99-3.99-.99h-3.15Z"/>
      <path class="cls-1" d="m21.24,99.14h5.4l4.22,18.85,4.14-18.85h5.66l4.14,18.77,4.22-18.77h5.4l-6.69,26.6h-5.62l-4.26-18.85-4.29,18.85h-5.62l-6.69-26.6Z"/>
      <path class="cls-1" d="m63.5,103.74h-7.41v-4.6h20.03v4.6h-7.41v22h-5.21v-22Z"/>
      <path class="cls-1" d="m79,99.14h5.17v10.15h10.49v-10.15h5.17v26.6h-5.17v-11.86h-10.49v11.86h-5.17v-26.6Z"/>
    </g>
  </g>
</svg>