{
    "asset" : {
        "generator" : "Khronos glTF Blender I/O v1.2.75",
        "version" : "2.0"
    },
    "scene" : 0,
    "scenes" : [
        {
            "name" : "Scene",
            "nodes" : [
                0
            ]
        }
    ],
    "nodes" : [
        {
            "mesh" : 0,
            "name" : "14071 OnyxCeph3 Export UK"
        }
    ],
    "meshes" : [
        {
            "name" : "14071 OnyxCeph3 Export UK",
            "primitives" : [
                {
                    "attributes" : {
                        "POSITION" : 0,
                        "NORMAL" : 1
                    },
                    "indices" : 2
                }
            ]
        }
    ],
    "accessors" : [
        {
            "bufferView" : 0,
            "componentType" : 5126,
            "count" : 60376,
            "max" : [
                44.35005569458008,
                6.486507892608643,
                22.076078414916992
            ],
            "min" : [
                -44.35016632080078,
                -28.0040283203125,
                -39.130126953125
            ],
            "type" : "VEC3"
        },
        {
            "bufferView" : 1,
            "componentType" : 5126,
            "count" : 60376,
            "type" : "VEC3"
        },
        {
            "bufferView" : 2,
            "componentType" : 5123,
            "count" : 60378,
            "type" : "SCALAR"
        }
    ],
    "bufferViews" : [
        {
            "buffer" : 0,
            "byteLength" : 724512,
            "byteOffset" : 0
        },
        {
            "buffer" : 0,
            "byteLength" : 724512,
            "byteOffset" : 724512
        },
        {
            "buffer" : 0,
            "byteLength" : 120756,
            "byteOffset" : 1449024
        }
    ],
    "buffers" : [
        {
            "byteLength" : 1569780,
            "uri" : "data:application/octet-stream;base64,"
        }
    ]
}
