{
    "asset" : {
        "generator" : "Khronos glTF Blender I/O v1.2.75",
        "version" : "2.0"
    },
    "scene" : 0,
    "scenes" : [
        {
            "name" : "Scene",
            "nodes" : [
                0
            ]
        }
    ],
    "nodes" : [
        {
            "mesh" : 0,
            "name" : "14071 OnyxCeph3 Export OK"
        }
    ],
    "meshes" : [
        {
            "name" : "14071 OnyxCeph3 Export OK",
            "primitives" : [
                {
                    "attributes" : {
                        "POSITION" : 0,
                        "NORMAL" : 1
                    },
                    "indices" : 2
                }
            ]
        }
    ],
    "accessors" : [
        {
            "bufferView" : 0,
            "componentType" : 5126,
            "count" : 78426,
            "max" : [
                44.349998474121094,
                32.00714874267578,
                27.13082504272461
            ],
            "min" : [
                -44.34999465942383,
                -0.7766748666763306,
                -39.123085021972656
            ],
            "type" : "VEC3"
        },
        {
            "bufferView" : 1,
            "componentType" : 5126,
            "count" : 78426,
            "type" : "VEC3"
        },
        {
            "bufferView" : 2,
            "componentType" : 5125,
            "count" : 78426,
            "type" : "SCALAR"
        }
    ],
    "bufferViews" : [
        {
            "buffer" : 0,
            "byteLength" : 941112,
            "byteOffset" : 0
        },
        {
            "buffer" : 0,
            "byteLength" : 941112,
            "byteOffset" : 941112
        },
        {
            "buffer" : 0,
            "byteLength" : 313704,
            "byteOffset" : 1882224
        }
    ],
    "buffers" : [
        {
            "byteLength" : 2195928,
            "uri" : "data:application/octet-stream;base64,"
        }
    ]
}
