{
    "asset" : {
        "generator" : "Khronos glTF Blender I/O v1.2.75",
        "version" : "2.0"
    },
    "scene" : 0,
    "scenes" : [
        {
            "name" : "Scene",
            "nodes" : [
                0
            ]
        }
    ],
    "nodes" : [
        {
            "mesh" : 0,
            "name" : "14071 OnyxCeph3 Export UK"
        }
    ],
    "meshes" : [
        {
            "name" : "14071 OnyxCeph3 Export UK.001",
            "primitives" : [
                {
                    "attributes" : {
                        "POSITION" : 0,
                        "NORMAL" : 1,
                        "TEXCOORD_0" : 2
                    },
                    "indices" : 3
                }
            ]
        }
    ],
    "accessors" : [
        {
            "bufferView" : 0,
            "componentType" : 5126,
            "count" : 75690,
            "max" : [
                0.1762371063232422,
                32.03092956542969,
                27.102893829345703
            ],
            "min" : [
                -44.350799560546875,
                -28.044626235961914,
                -39.161502838134766
            ],
            "type" : "VEC3"
        },
        {
            "bufferView" : 1,
            "componentType" : 5126,
            "count" : 75690,
            "type" : "VEC3"
        },
        {
            "bufferView" : 2,
            "componentType" : 5126,
            "count" : 75690,
            "type" : "VEC2"
        },
        {
            "bufferView" : 3,
            "componentType" : 5125,
            "count" : 77118,
            "type" : "SCALAR"
        }
    ],
    "bufferViews" : [
        {
            "buffer" : 0,
            "byteLength" : 908280,
            "byteOffset" : 0
        },
        {
            "buffer" : 0,
            "byteLength" : 908280,
            "byteOffset" : 908280
        },
        {
            "buffer" : 0,
            "byteLength" : 605520,
            "byteOffset" : 1816560
        },
        {
            "buffer" : 0,
            "byteLength" : 308472,
            "byteOffset" : 2422080
        }
    ],
    "buffers" : [
        {
            "byteLength" : 2730552,
            "uri" : "data:application/octet-stream;base64,"
        }
    ]
}
