{
    "asset" : {
        "generator" : "Khronos glTF Blender I/O v1.2.75",
        "version" : "2.0"
    },
    "scene" : 0,
    "scenes" : [
        {
            "name" : "Scene",
            "nodes" : [
                0
            ]
        }
    ],
    "nodes" : [
        {
            "mesh" : 0,
            "name" : "14375 OnyxCeph3 Export OK",
            "rotation" : [
                0.7072007060050964,
                0,
                0,
                0.7070128321647644
            ]
        }
    ],
    "meshes" : [
        {
            "name" : "14375 OnyxCeph3 Export OK",
            "primitives" : [
                {
                    "attributes" : {
                        "POSITION" : 0,
                        "NORMAL" : 1,
                        "TEXCOORD_0" : 2
                    },
                    "indices" : 3
                }
            ]
        }
    ],
    "accessors" : [
        {
            "bufferView" : 0,
            "componentType" : 5126,
            "count" : 82534,
            "max" : [
                0.09460830688476562,
                36.000518798828125,
                30.000154495239258
            ],
            "min" : [
                -44.35549545288086,
                -35.99998474121094,
                -29.999990463256836
            ],
            "type" : "VEC3"
        },
        {
            "bufferView" : 1,
            "componentType" : 5126,
            "count" : 82534,
            "type" : "VEC3"
        },
        {
            "bufferView" : 2,
            "componentType" : 5126,
            "count" : 82534,
            "type" : "VEC2"
        },
        {
            "bufferView" : 3,
            "componentType" : 5125,
            "count" : 83946,
            "type" : "SCALAR"
        }
    ],
    "bufferViews" : [
        {
            "buffer" : 0,
            "byteLength" : 990408,
            "byteOffset" : 0
        },
        {
            "buffer" : 0,
            "byteLength" : 990408,
            "byteOffset" : 990408
        },
        {
            "buffer" : 0,
            "byteLength" : 660272,
            "byteOffset" : 1980816
        },
        {
            "buffer" : 0,
            "byteLength" : 335784,
            "byteOffset" : 2641088
        }
    ],
    "buffers" : [
        {
            "byteLength" : 2976872,
            "uri" : "data:application/octet-stream;base64,"
        }
    ]
}
