{
    "asset" : {
        "generator" : "Khronos glTF Blender I/O v1.2.75",
        "version" : "2.0"
    },
    "scene" : 0,
    "scenes" : [
        {
            "name" : "Scene",
            "nodes" : [
                0
            ]
        }
    ],
    "nodes" : [
        {
            "mesh" : 0,
            "name" : "14375 OnyxCeph3 Export OK",
            "rotation" : [
                0.7072007060050964,
                0,
                0,
                0.7070128321647644
            ]
        }
    ],
    "meshes" : [
        {
            "name" : "14375 OnyxCeph3 Export OK",
            "primitives" : [
                {
                    "attributes" : {
                        "POSITION" : 0,
                        "NORMAL" : 1
                    },
                    "indices" : 2
                }
            ]
        }
    ],
    "accessors" : [
        {
            "bufferView" : 0,
            "componentType" : 5126,
            "count" : 89540,
            "max" : [
                44.35001754760742,
                36.000518798828125,
                1.577192783355713
            ],
            "min" : [
                -44.3520622253418,
                -35.99998474121094,
                -29.999988555908203
            ],
            "type" : "VEC3"
        },
        {
            "bufferView" : 1,
            "componentType" : 5126,
            "count" : 89540,
            "type" : "VEC3"
        },
        {
            "bufferView" : 2,
            "componentType" : 5125,
            "count" : 89586,
            "type" : "SCALAR"
        }
    ],
    "bufferViews" : [
        {
            "buffer" : 0,
            "byteLength" : 1074480,
            "byteOffset" : 0
        },
        {
            "buffer" : 0,
            "byteLength" : 1074480,
            "byteOffset" : 1074480
        },
        {
            "buffer" : 0,
            "byteLength" : 358344,
            "byteOffset" : 2148960
        }
    ],
    "buffers" : [
        {
            "byteLength" : 2507304,
            "uri" : "data:application/octet-stream;base64,"
        }
    ]
}
