{
    "asset" : {
        "generator" : "Khronos glTF Blender I/O v1.2.75",
        "version" : "2.0"
    },
    "scene" : 0,
    "scenes" : [
        {
            "name" : "Scene",
            "nodes" : [
                0
            ]
        }
    ],
    "nodes" : [
        {
            "mesh" : 0,
            "name" : "14375 OnyxCeph3 Export UK",
            "rotation" : [
                0.7072007060050964,
                0,
                0,
                0.7070128321647644
            ]
        }
    ],
    "meshes" : [
        {
            "name" : "14375 OnyxCeph3 Export UK",
            "primitives" : [
                {
                    "attributes" : {
                        "POSITION" : 0,
                        "NORMAL" : 1
                    },
                    "indices" : 2
                }
            ]
        }
    ],
    "accessors" : [
        {
            "bufferView" : 0,
            "componentType" : 5126,
            "count" : 67745,
            "max" : [
                44.35001754760742,
                31.01740264892578,
                30.000154495239258
            ],
            "min" : [
                -44.35549545288086,
                -35.99998474121094,
                -5.025116443634033
            ],
            "type" : "VEC3"
        },
        {
            "bufferView" : 1,
            "componentType" : 5126,
            "count" : 67745,
            "type" : "VEC3"
        },
        {
            "bufferView" : 2,
            "componentType" : 5125,
            "count" : 67788,
            "type" : "SCALAR"
        }
    ],
    "bufferViews" : [
        {
            "buffer" : 0,
            "byteLength" : 812940,
            "byteOffset" : 0
        },
        {
            "buffer" : 0,
            "byteLength" : 812940,
            "byteOffset" : 812940
        },
        {
            "buffer" : 0,
            "byteLength" : 271152,
            "byteOffset" : 1625880
        }
    ],
    "buffers" : [
        {
            "byteLength" : 1897032,
            "uri" : "data:application/octet-stream;base64,"
        }
    ]
}
