{
    "asset" : {
        "generator" : "Khronos glTF Blender I/O v1.2.75",
        "version" : "2.0"
    },
    "scene" : 0,
    "scenes" : [
        {
            "name" : "Scene",
            "nodes" : [
                0
            ]
        }
    ],
    "nodes" : [
        {
            "mesh" : 0,
            "name" : "14207 OnyxCeph3 Export OK",
            "rotation" : [
                0.7068532705307007,
                0,
                0,
                0.7073602080345154
            ]
        }
    ],
    "meshes" : [
        {
            "name" : "14207 OnyxCeph3 Export OK",
            "primitives" : [
                {
                    "attributes" : {
                        "POSITION" : 0,
                        "NORMAL" : 1
                    },
                    "indices" : 2
                }
            ]
        }
    ],
    "accessors" : [
        {
            "bufferView" : 0,
            "componentType" : 5126,
            "count" : 55151,
            "max" : [
                40.80256652832031,
                24.47641944885254,
                2.3243048191070557
            ],
            "min" : [
                -40.802005767822266,
                -36.47502136230469,
                -28.999990463256836
            ],
            "type" : "VEC3"
        },
        {
            "bufferView" : 1,
            "componentType" : 5126,
            "count" : 55151,
            "type" : "VEC3"
        },
        {
            "bufferView" : 2,
            "componentType" : 5123,
            "count" : 55164,
            "type" : "SCALAR"
        }
    ],
    "bufferViews" : [
        {
            "buffer" : 0,
            "byteLength" : 661812,
            "byteOffset" : 0
        },
        {
            "buffer" : 0,
            "byteLength" : 661812,
            "byteOffset" : 661812
        },
        {
            "buffer" : 0,
            "byteLength" : 110328,
            "byteOffset" : 1323624
        }
    ],
    "buffers" : [
        {
            "byteLength" : 1433952,
            "uri" : "data:application/octet-stream;base64,"
        }
    ]
}
