{
    "asset" : {
        "generator" : "Khronos glTF Blender I/O v1.2.75",
        "version" : "2.0"
    },
    "scene" : 0,
    "scenes" : [
        {
            "name" : "Scene",
            "nodes" : [
                0
            ]
        }
    ],
    "nodes" : [
        {
            "mesh" : 0,
            "name" : "14207 OnyxCeph3 Export UK",
            "rotation" : [
                0.7068532705307007,
                0,
                0,
                0.7073602080345154
            ]
        }
    ],
    "meshes" : [
        {
            "name" : "14207 OnyxCeph3 Export UK",
            "primitives" : [
                {
                    "attributes" : {
                        "POSITION" : 0,
                        "NORMAL" : 1,
                        "TEXCOORD_0" : 2
                    },
                    "indices" : 3
                }
            ]
        }
    ],
    "accessors" : [
        {
            "bufferView" : 0,
            "componentType" : 5126,
            "count" : 52008,
            "max" : [
                0.09460735321044922,
                24.47641944885254,
                31.000028610229492
            ],
            "min" : [
                -40.802032470703125,
                -36.47502136230469,
                -28.99999237060547
            ],
            "type" : "VEC3"
        },
        {
            "bufferView" : 1,
            "componentType" : 5126,
            "count" : 52008,
            "type" : "VEC3"
        },
        {
            "bufferView" : 2,
            "componentType" : 5126,
            "count" : 52008,
            "type" : "VEC2"
        },
        {
            "bufferView" : 3,
            "componentType" : 5123,
            "count" : 53244,
            "type" : "SCALAR"
        }
    ],
    "bufferViews" : [
        {
            "buffer" : 0,
            "byteLength" : 624096,
            "byteOffset" : 0
        },
        {
            "buffer" : 0,
            "byteLength" : 624096,
            "byteOffset" : 624096
        },
        {
            "buffer" : 0,
            "byteLength" : 416064,
            "byteOffset" : 1248192
        },
        {
            "buffer" : 0,
            "byteLength" : 106488,
            "byteOffset" : 1664256
        }
    ],
    "buffers" : [
        {
            "byteLength" : 1770744,
            "uri" : "data:application/octet-stream;base64,"
        }
    ]
}
