{
    "asset" : {
        "generator" : "Khronos glTF Blender I/O v1.2.75",
        "version" : "2.0"
    },
    "scene" : 0,
    "scenes" : [
        {
            "name" : "Scene",
            "nodes" : [
                0
            ]
        }
    ],
    "nodes" : [
        {
            "mesh" : 0,
            "name" : "14207 OnyxCeph3 Export UK",
            "rotation" : [
                0.7068532705307007,
                0,
                0,
                0.7073602080345154
            ]
        }
    ],
    "meshes" : [
        {
            "name" : "14207 OnyxCeph3 Export UK",
            "primitives" : [
                {
                    "attributes" : {
                        "POSITION" : 0,
                        "NORMAL" : 1
                    },
                    "indices" : 2
                }
            ]
        }
    ],
    "accessors" : [
        {
            "bufferView" : 0,
            "componentType" : 5126,
            "count" : 46617,
            "max" : [
                40.802001953125,
                19.83310890197754,
                31.000028610229492
            ],
            "min" : [
                -40.802032470703125,
                -36.47502136230469,
                -1.1595760583877563
            ],
            "type" : "VEC3"
        },
        {
            "bufferView" : 1,
            "componentType" : 5126,
            "count" : 46617,
            "type" : "VEC3"
        },
        {
            "bufferView" : 2,
            "componentType" : 5123,
            "count" : 46638,
            "type" : "SCALAR"
        }
    ],
    "bufferViews" : [
        {
            "buffer" : 0,
            "byteLength" : 559404,
            "byteOffset" : 0
        },
        {
            "buffer" : 0,
            "byteLength" : 559404,
            "byteOffset" : 559404
        },
        {
            "buffer" : 0,
            "byteLength" : 93276,
            "byteOffset" : 1118808
        }
    ],
    "buffers" : [
        {
            "byteLength" : 1212084,
            "uri" : "data:application/octet-stream;base64,"
        }
    ]
}
