{
    "asset" : {
        "generator" : "Khronos glTF Blender I/O v1.2.75",
        "version" : "2.0"
    },
    "scene" : 0,
    "scenes" : [
        {
            "name" : "Scene",
            "nodes" : [
                0
            ]
        }
    ],
    "nodes" : [
        {
            "mesh" : 0,
            "name" : "14062 OnyxCeph3 Export OK"
        }
    ],
    "meshes" : [
        {
            "name" : "14062 OnyxCeph3 Export OK",
            "primitives" : [
                {
                    "attributes" : {
                        "POSITION" : 0,
                        "NORMAL" : 1,
                        "TEXCOORD_0" : 2
                    },
                    "indices" : 3
                }
            ]
        }
    ],
    "accessors" : [
        {
            "bufferView" : 0,
            "componentType" : 5126,
            "count" : 65252,
            "max" : [
                0.8552837371826172,
                29.63541603088379,
                33.15263366699219
            ],
            "min" : [
                -44.81848907470703,
                -29.534879684448242,
                -33.1845703125
            ],
            "type" : "VEC3"
        },
        {
            "bufferView" : 1,
            "componentType" : 5126,
            "count" : 65252,
            "type" : "VEC3"
        },
        {
            "bufferView" : 2,
            "componentType" : 5126,
            "count" : 65252,
            "type" : "VEC2"
        },
        {
            "bufferView" : 3,
            "componentType" : 5123,
            "count" : 66606,
            "type" : "SCALAR"
        }
    ],
    "bufferViews" : [
        {
            "buffer" : 0,
            "byteLength" : 783024,
            "byteOffset" : 0
        },
        {
            "buffer" : 0,
            "byteLength" : 783024,
            "byteOffset" : 783024
        },
        {
            "buffer" : 0,
            "byteLength" : 522016,
            "byteOffset" : 1566048
        },
        {
            "buffer" : 0,
            "byteLength" : 133212,
            "byteOffset" : 2088064
        }
    ],
    "buffers" : [
        {
            "byteLength" : 2221276,
            "uri" : "data:application/octet-stream;base64,"
        }
    ]
}
