{
    "asset" : {
        "generator" : "Khronos glTF Blender I/O v1.2.75",
        "version" : "2.0"
    },
    "scene" : 0,
    "scenes" : [
        {
            "name" : "Scene",
            "nodes" : [
                0
            ]
        }
    ],
    "nodes" : [
        {
            "mesh" : 0,
            "name" : "14062 OnyxCeph3 Export OK"
        }
    ],
    "meshes" : [
        {
            "name" : "14062 OnyxCeph3 Export OK",
            "primitives" : [
                {
                    "attributes" : {
                        "POSITION" : 0,
                        "NORMAL" : 1
                    },
                    "indices" : 2
                }
            ]
        }
    ],
    "accessors" : [
        {
            "bufferView" : 0,
            "componentType" : 5126,
            "count" : 77118,
            "max" : [
                44.01265335083008,
                29.63541603088379,
                33.15263366699219
            ],
            "min" : [
                -44.72357940673828,
                -3.183323860168457,
                -33.85994338989258
            ],
            "type" : "VEC3"
        },
        {
            "bufferView" : 1,
            "componentType" : 5126,
            "count" : 77118,
            "type" : "VEC3"
        },
        {
            "bufferView" : 2,
            "componentType" : 5125,
            "count" : 77118,
            "type" : "SCALAR"
        }
    ],
    "bufferViews" : [
        {
            "buffer" : 0,
            "byteLength" : 925416,
            "byteOffset" : 0
        },
        {
            "buffer" : 0,
            "byteLength" : 925416,
            "byteOffset" : 925416
        },
        {
            "buffer" : 0,
            "byteLength" : 308472,
            "byteOffset" : 1850832
        }
    ],
    "buffers" : [
        {
            "byteLength" : 2159304,
            "uri" : "data:application/octet-stream;base64,"
        }
    ]
}
