{
    "asset" : {
        "generator" : "Khronos glTF Blender I/O v1.2.75",
        "version" : "2.0"
    },
    "scene" : 0,
    "scenes" : [
        {
            "name" : "Scene",
            "nodes" : [
                0
            ]
        }
    ],
    "nodes" : [
        {
            "mesh" : 0,
            "name" : "14062 OnyxCeph3 Export UK"
        }
    ],
    "meshes" : [
        {
            "name" : "14062 OnyxCeph3 Export UK",
            "primitives" : [
                {
                    "attributes" : {
                        "POSITION" : 0,
                        "NORMAL" : 1
                    },
                    "indices" : 2
                }
            ]
        }
    ],
    "accessors" : [
        {
            "bufferView" : 0,
            "componentType" : 5126,
            "count" : 51876,
            "max" : [
                43.91804122924805,
                5.345212936401367,
                28.057994842529297
            ],
            "min" : [
                -44.81848907470703,
                -29.587703704833984,
                -33.9035758972168
            ],
            "type" : "VEC3"
        },
        {
            "bufferView" : 1,
            "componentType" : 5126,
            "count" : 51876,
            "type" : "VEC3"
        },
        {
            "bufferView" : 2,
            "componentType" : 5123,
            "count" : 51876,
            "type" : "SCALAR"
        }
    ],
    "bufferViews" : [
        {
            "buffer" : 0,
            "byteLength" : 622512,
            "byteOffset" : 0
        },
        {
            "buffer" : 0,
            "byteLength" : 622512,
            "byteOffset" : 622512
        },
        {
            "buffer" : 0,
            "byteLength" : 103752,
            "byteOffset" : 1245024
        }
    ],
    "buffers" : [
        {
            "byteLength" : 1348776,
            "uri" : "data:application/octet-stream;base64,"
        }
    ]
}
