{
    "asset" : {
        "generator" : "Khronos glTF Blender I/O v1.2.75",
        "version" : "2.0"
    },
    "scene" : 0,
    "scenes" : [
        {
            "name" : "Scene",
            "nodes" : [
                0
            ]
        }
    ],
    "nodes" : [
        {
            "mesh" : 0,
            "name" : "13676 OnyxCeph3 Export UK"
        }
    ],
    "meshes" : [
        {
            "name" : "13676 OnyxCeph3 Export UK",
            "primitives" : [
                {
                    "attributes" : {
                        "POSITION" : 0,
                        "NORMAL" : 1
                    },
                    "indices" : 2
                }
            ]
        }
    ],
    "accessors" : [
        {
            "bufferView" : 0,
            "componentType" : 5126,
            "count" : 14340,
            "max" : [
                40.918174743652344,
                3.8833322525024414,
                50.15789794921875
            ],
            "min" : [
                -47.65835189819336,
                -30.31415367126465,
                -13.082587242126465
            ],
            "type" : "VEC3"
        },
        {
            "bufferView" : 1,
            "componentType" : 5126,
            "count" : 14340,
            "type" : "VEC3"
        },
        {
            "bufferView" : 2,
            "componentType" : 5123,
            "count" : 14340,
            "type" : "SCALAR"
        }
    ],
    "bufferViews" : [
        {
            "buffer" : 0,
            "byteLength" : 172080,
            "byteOffset" : 0
        },
        {
            "buffer" : 0,
            "byteLength" : 172080,
            "byteOffset" : 172080
        },
        {
            "buffer" : 0,
            "byteLength" : 28680,
            "byteOffset" : 344160
        }
    ],
    "buffers" : [
        {
            "byteLength" : 372840,
            "uri" : "data:application/octet-stream;base64,"
        }
    ]
}
