{
    "asset" : {
        "generator" : "Khronos glTF Blender I/O v1.2.75",
        "version" : "2.0"
    },
    "scene" : 0,
    "scenes" : [
        {
            "name" : "Scene",
            "nodes" : [
                0,
                1
            ]
        }
    ],
    "nodes" : [
        {
            "mesh" : 0,
            "name" : "13676 OnyxCeph3 Export OK"
        },
        {
            "mesh" : 1,
            "name" : "13676 OnyxCeph3 Export UK"
        }
    ],
    "meshes" : [
        {
            "name" : "13676 OnyxCeph3 Export OK",
            "primitives" : [
                {
                    "attributes" : {
                        "POSITION" : 0,
                        "NORMAL" : 1
                    },
                    "indices" : 2
                }
            ]
        },
        {
            "name" : "13676 OnyxCeph3 Export UK",
            "primitives" : [
                {
                    "attributes" : {
                        "POSITION" : 3,
                        "NORMAL" : 4
                    },
                    "indices" : 5
                }
            ]
        }
    ],
    "accessors" : [
        {
            "bufferView" : 0,
            "componentType" : 5126,
            "count" : 18738,
            "max" : [
                41.7583122253418,
                31.25693130493164,
                54.479652404785156
            ],
            "min" : [
                -47.45087814331055,
                -1.7368216514587402,
                -14.130180358886719
            ],
            "type" : "VEC3"
        },
        {
            "bufferView" : 1,
            "componentType" : 5126,
            "count" : 18738,
            "type" : "VEC3"
        },
        {
            "bufferView" : 2,
            "componentType" : 5123,
            "count" : 18738,
            "type" : "SCALAR"
        },
        {
            "bufferView" : 3,
            "componentType" : 5126,
            "count" : 14340,
            "max" : [
                40.918174743652344,
                3.8833322525024414,
                50.15789794921875
            ],
            "min" : [
                -47.65835189819336,
                -30.31415367126465,
                -13.082587242126465
            ],
            "type" : "VEC3"
        },
        {
            "bufferView" : 4,
            "componentType" : 5126,
            "count" : 14340,
            "type" : "VEC3"
        },
        {
            "bufferView" : 5,
            "componentType" : 5123,
            "count" : 14340,
            "type" : "SCALAR"
        }
    ],
    "bufferViews" : [
        {
            "buffer" : 0,
            "byteLength" : 224856,
            "byteOffset" : 0
        },
        {
            "buffer" : 0,
            "byteLength" : 224856,
            "byteOffset" : 224856
        },
        {
            "buffer" : 0,
            "byteLength" : 37476,
            "byteOffset" : 449712
        },
        {
            "buffer" : 0,
            "byteLength" : 172080,
            "byteOffset" : 487188
        },
        {
            "buffer" : 0,
            "byteLength" : 172080,
            "byteOffset" : 659268
        },
        {
            "buffer" : 0,
            "byteLength" : 28680,
            "byteOffset" : 831348
        }
    ],
    "buffers" : [
        {
            "byteLength" : 860028,
            "uri" : "data:application/octet-stream;base64,"
        }
    ]
}
