{
    "asset" : {
        "generator" : "Khronos glTF Blender I/O v1.2.75",
        "version" : "2.0"
    },
    "scene" : 0,
    "scenes" : [
        {
            "name" : "Scene",
            "nodes" : [
                0
            ]
        }
    ],
    "nodes" : [
        {
            "mesh" : 0,
            "name" : "13676 OnyxCeph3 Export OK"
        }
    ],
    "meshes" : [
        {
            "name" : "13676 OnyxCeph3 Export OK",
            "primitives" : [
                {
                    "attributes" : {
                        "POSITION" : 0,
                        "NORMAL" : 1
                    },
                    "indices" : 2
                }
            ]
        }
    ],
    "accessors" : [
        {
            "bufferView" : 0,
            "componentType" : 5126,
            "count" : 18738,
            "max" : [
                41.7583122253418,
                31.25693130493164,
                54.479652404785156
            ],
            "min" : [
                -47.45087814331055,
                -1.7368216514587402,
                -14.130180358886719
            ],
            "type" : "VEC3"
        },
        {
            "bufferView" : 1,
            "componentType" : 5126,
            "count" : 18738,
            "type" : "VEC3"
        },
        {
            "bufferView" : 2,
            "componentType" : 5123,
            "count" : 18738,
            "type" : "SCALAR"
        }
    ],
    "bufferViews" : [
        {
            "buffer" : 0,
            "byteLength" : 224856,
            "byteOffset" : 0
        },
        {
            "buffer" : 0,
            "byteLength" : 224856,
            "byteOffset" : 224856
        },
        {
            "buffer" : 0,
            "byteLength" : 37476,
            "byteOffset" : 449712
        }
    ],
    "buffers" : [
        {
            "byteLength" : 487188,
            "uri" : "data:application/octet-stream;base64,"
        }
    ]
}
