{
    "asset" : {
        "generator" : "Khronos glTF Blender I/O v1.2.75",
        "version" : "2.0"
    },
    "scene" : 0,
    "scenes" : [
        {
            "name" : "Scene",
            "nodes" : [
                0
            ]
        }
    ],
    "nodes" : [
        {
            "mesh" : 0,
            "name" : "13676 OnyxCeph3 Export UK"
        }
    ],
    "meshes" : [
        {
            "name" : "13676 OnyxCeph3 Export UK",
            "primitives" : [
                {
                    "attributes" : {
                        "POSITION" : 0,
                        "NORMAL" : 1,
                        "TEXCOORD_0" : 2
                    },
                    "indices" : 3
                }
            ]
        }
    ],
    "accessors" : [
        {
            "bufferView" : 0,
            "componentType" : 5126,
            "count" : 17500,
            "max" : [
                0.33914804458618164,
                31.25693130493164,
                54.479652404785156
            ],
            "min" : [
                -47.65835189819336,
                -30.31415367126465,
                -12.20876693725586
            ],
            "type" : "VEC3"
        },
        {
            "bufferView" : 1,
            "componentType" : 5126,
            "count" : 17500,
            "type" : "VEC3"
        },
        {
            "bufferView" : 2,
            "componentType" : 5126,
            "count" : 17500,
            "type" : "VEC2"
        },
        {
            "bufferView" : 3,
            "componentType" : 5123,
            "count" : 18300,
            "type" : "SCALAR"
        }
    ],
    "bufferViews" : [
        {
            "buffer" : 0,
            "byteLength" : 210000,
            "byteOffset" : 0
        },
        {
            "buffer" : 0,
            "byteLength" : 210000,
            "byteOffset" : 210000
        },
        {
            "buffer" : 0,
            "byteLength" : 140000,
            "byteOffset" : 420000
        },
        {
            "buffer" : 0,
            "byteLength" : 36600,
            "byteOffset" : 560000
        }
    ],
    "buffers" : [
        {
            "byteLength" : 596600,
            "uri" : "data:application/octet-stream;base64,"
        }
    ]
}
