{
    "asset" : {
        "generator" : "Khronos glTF Blender I/O v1.2.75",
        "version" : "2.0"
    },
    "scene" : 0,
    "scenes" : [
        {
            "name" : "Scene",
            "nodes" : [
                0
            ]
        }
    ],
    "nodes" : [
        {
            "mesh" : 0,
            "name" : "13498 OnyxCeph3 Export UK"
        }
    ],
    "meshes" : [
        {
            "name" : "13498 OnyxCeph3 Export UK",
            "primitives" : [
                {
                    "attributes" : {
                        "POSITION" : 0,
                        "NORMAL" : 1,
                        "TEXCOORD_0" : 2
                    },
                    "indices" : 3
                }
            ]
        }
    ],
    "accessors" : [
        {
            "bufferView" : 0,
            "componentType" : 5126,
            "count" : 55386,
            "max" : [
                0.17905426025390625,
                30.011444091796875,
                33.135337829589844
            ],
            "min" : [
                -44.34999465942383,
                -30.009746551513672,
                -33.1353759765625
            ],
            "type" : "VEC3"
        },
        {
            "bufferView" : 1,
            "componentType" : 5126,
            "count" : 55386,
            "type" : "VEC3"
        },
        {
            "bufferView" : 2,
            "componentType" : 5126,
            "count" : 55386,
            "type" : "VEC2"
        },
        {
            "bufferView" : 3,
            "componentType" : 5123,
            "count" : 56508,
            "type" : "SCALAR"
        }
    ],
    "bufferViews" : [
        {
            "buffer" : 0,
            "byteLength" : 664632,
            "byteOffset" : 0
        },
        {
            "buffer" : 0,
            "byteLength" : 664632,
            "byteOffset" : 664632
        },
        {
            "buffer" : 0,
            "byteLength" : 443088,
            "byteOffset" : 1329264
        },
        {
            "buffer" : 0,
            "byteLength" : 113016,
            "byteOffset" : 1772352
        }
    ],
    "buffers" : [
        {
            "byteLength" : 1885368,
            "uri" : "data:application/octet-stream;base64,"
        }
    ]
}
