{
    "asset" : {
        "generator" : "Khronos glTF Blender I/O v1.2.75",
        "version" : "2.0"
    },
    "scene" : 0,
    "scenes" : [
        {
            "name" : "Scene",
            "nodes" : [
                0
            ]
        }
    ],
    "nodes" : [
        {
            "mesh" : 0,
            "name" : "13498 OnyxCeph3 Export OK"
        }
    ],
    "meshes" : [
        {
            "name" : "13498 OnyxCeph3 Export OK",
            "primitives" : [
                {
                    "attributes" : {
                        "POSITION" : 0,
                        "NORMAL" : 1
                    },
                    "indices" : 2
                }
            ]
        }
    ],
    "accessors" : [
        {
            "bufferView" : 0,
            "componentType" : 5126,
            "count" : 64938,
            "max" : [
                44.349998474121094,
                30.011445999145508,
                33.135337829589844
            ],
            "min" : [
                -44.34999465942383,
                -2.1586999893188477,
                -33.12206268310547
            ],
            "type" : "VEC3"
        },
        {
            "bufferView" : 1,
            "componentType" : 5126,
            "count" : 64938,
            "type" : "VEC3"
        },
        {
            "bufferView" : 2,
            "componentType" : 5123,
            "count" : 64938,
            "type" : "SCALAR"
        }
    ],
    "bufferViews" : [
        {
            "buffer" : 0,
            "byteLength" : 779256,
            "byteOffset" : 0
        },
        {
            "buffer" : 0,
            "byteLength" : 779256,
            "byteOffset" : 779256
        },
        {
            "buffer" : 0,
            "byteLength" : 129876,
            "byteOffset" : 1558512
        }
    ],
    "buffers" : [
        {
            "byteLength" : 1688388,
            "uri" : "data:application/octet-stream;base64,"
        }
    ]
}
