{
    "asset" : {
        "generator" : "Khronos glTF Blender I/O v1.2.75",
        "version" : "2.0"
    },
    "scene" : 0,
    "scenes" : [
        {
            "name" : "Scene",
            "nodes" : [
                0,
                1
            ]
        }
    ],
    "nodes" : [
        {
            "mesh" : 0,
            "name" : "13498 OnyxCeph3 Export OK"
        },
        {
            "mesh" : 1,
            "name" : "13498 OnyxCeph3 Export UK"
        }
    ],
    "meshes" : [
        {
            "name" : "13498 OnyxCeph3 Export OK",
            "primitives" : [
                {
                    "attributes" : {
                        "POSITION" : 0,
                        "NORMAL" : 1
                    },
                    "indices" : 2
                }
            ]
        },
        {
            "name" : "13498 OnyxCeph3 Export UK",
            "primitives" : [
                {
                    "attributes" : {
                        "POSITION" : 3,
                        "NORMAL" : 4
                    },
                    "indices" : 5
                }
            ]
        }
    ],
    "accessors" : [
        {
            "bufferView" : 0,
            "componentType" : 5126,
            "count" : 64938,
            "max" : [
                44.349998474121094,
                30.011445999145508,
                33.135337829589844
            ],
            "min" : [
                -44.34999465942383,
                -2.1586999893188477,
                -33.12206268310547
            ],
            "type" : "VEC3"
        },
        {
            "bufferView" : 1,
            "componentType" : 5126,
            "count" : 64938,
            "type" : "VEC3"
        },
        {
            "bufferView" : 2,
            "componentType" : 5123,
            "count" : 64938,
            "type" : "SCALAR"
        },
        {
            "bufferView" : 3,
            "componentType" : 5126,
            "count" : 41922,
            "max" : [
                44.35002517700195,
                4.124698638916016,
                28.07954978942871
            ],
            "min" : [
                -44.349979400634766,
                -30.009746551513672,
                -33.135379791259766
            ],
            "type" : "VEC3"
        },
        {
            "bufferView" : 4,
            "componentType" : 5126,
            "count" : 41922,
            "type" : "VEC3"
        },
        {
            "bufferView" : 5,
            "componentType" : 5123,
            "count" : 41922,
            "type" : "SCALAR"
        }
    ],
    "bufferViews" : [
        {
            "buffer" : 0,
            "byteLength" : 779256,
            "byteOffset" : 0
        },
        {
            "buffer" : 0,
            "byteLength" : 779256,
            "byteOffset" : 779256
        },
        {
            "buffer" : 0,
            "byteLength" : 129876,
            "byteOffset" : 1558512
        },
        {
            "buffer" : 0,
            "byteLength" : 503064,
            "byteOffset" : 1688388
        },
        {
            "buffer" : 0,
            "byteLength" : 503064,
            "byteOffset" : 2191452
        },
        {
            "buffer" : 0,
            "byteLength" : 83844,
            "byteOffset" : 2694516
        }
    ],
    "buffers" : [
        {
            "byteLength" : 2778360,
            "uri" : "data:application/octet-stream;base64,"
        }
    ]
}
