{
    "asset" : {
        "generator" : "Khronos glTF Blender I/O v1.2.75",
        "version" : "2.0"
    },
    "scene" : 0,
    "scenes" : [
        {
            "name" : "Scene",
            "nodes" : [
                0
            ]
        }
    ],
    "nodes" : [
        {
            "mesh" : 0,
            "name" : "13498 OnyxCeph3 Export UK"
        }
    ],
    "meshes" : [
        {
            "name" : "13498 OnyxCeph3 Export UK",
            "primitives" : [
                {
                    "attributes" : {
                        "POSITION" : 0,
                        "NORMAL" : 1
                    },
                    "indices" : 2
                }
            ]
        }
    ],
    "accessors" : [
        {
            "bufferView" : 0,
            "componentType" : 5126,
            "count" : 41922,
            "max" : [
                44.35002517700195,
                4.124698638916016,
                28.07954978942871
            ],
            "min" : [
                -44.349979400634766,
                -30.009746551513672,
                -33.135379791259766
            ],
            "type" : "VEC3"
        },
        {
            "bufferView" : 1,
            "componentType" : 5126,
            "count" : 41922,
            "type" : "VEC3"
        },
        {
            "bufferView" : 2,
            "componentType" : 5123,
            "count" : 41922,
            "type" : "SCALAR"
        }
    ],
    "bufferViews" : [
        {
            "buffer" : 0,
            "byteLength" : 503064,
            "byteOffset" : 0
        },
        {
            "buffer" : 0,
            "byteLength" : 503064,
            "byteOffset" : 503064
        },
        {
            "buffer" : 0,
            "byteLength" : 83844,
            "byteOffset" : 1006128
        }
    ],
    "buffers" : [
        {
            "byteLength" : 1089972,
            "uri" : "data:application/octet-stream;base64,"
        }
    ]
}
