{
    "asset" : {
        "generator" : "Khronos glTF Blender I/O v1.2.75",
        "version" : "2.0"
    },
    "scene" : 0,
    "scenes" : [
        {
            "name" : "Scene",
            "nodes" : [
                0
            ]
        }
    ],
    "nodes" : [
        {
            "mesh" : 0,
            "name" : "00001104 OnyxCeph3 Export UK",
            "rotation" : [
                0.7072881460189819,
                0,
                0,
                0.7069253921508789
            ]
        }
    ],
    "meshes" : [
        {
            "name" : "00001104 OnyxCeph3 Export UK",
            "primitives" : [
                {
                    "attributes" : {
                        "POSITION" : 0,
                        "NORMAL" : 1
                    },
                    "indices" : 2
                }
            ]
        }
    ],
    "accessors" : [
        {
            "bufferView" : 0,
            "componentType" : 5126,
            "count" : 66772,
            "max" : [
                44.35001754760742,
                30.999881744384766,
                30.00004768371582
            ],
            "min" : [
                -44.35549545288086,
                -35.99998474121094,
                -2.676990032196045
            ],
            "type" : "VEC3"
        },
        {
            "bufferView" : 1,
            "componentType" : 5126,
            "count" : 66772,
            "type" : "VEC3"
        },
        {
            "bufferView" : 2,
            "componentType" : 5125,
            "count" : 66816,
            "type" : "SCALAR"
        }
    ],
    "bufferViews" : [
        {
            "buffer" : 0,
            "byteLength" : 801264,
            "byteOffset" : 0
        },
        {
            "buffer" : 0,
            "byteLength" : 801264,
            "byteOffset" : 801264
        },
        {
            "buffer" : 0,
            "byteLength" : 267264,
            "byteOffset" : 1602528
        }
    ],
    "buffers" : [
        {
            "byteLength" : 1869792,
            "uri" : "data:application/octet-stream;base64,"
        }
    ]
}
