{
    "asset" : {
        "generator" : "Khronos glTF Blender I/O v1.2.75",
        "version" : "2.0"
    },
    "scene" : 0,
    "scenes" : [
        {
            "name" : "Scene",
            "nodes" : [
                0
            ]
        }
    ],
    "nodes" : [
        {
            "mesh" : 0,
            "name" : "00001104 OnyxCeph3 Export UK",
            "rotation" : [
                0.7072881460189819,
                0,
                0,
                0.7069253921508789
            ]
        }
    ],
    "meshes" : [
        {
            "name" : "00001104 OnyxCeph3 Export UK",
            "primitives" : [
                {
                    "attributes" : {
                        "POSITION" : 0,
                        "NORMAL" : 1,
                        "TEXCOORD_0" : 2
                    },
                    "indices" : 3
                }
            ]
        }
    ],
    "accessors" : [
        {
            "bufferView" : 0,
            "componentType" : 5126,
            "count" : 76499,
            "max" : [
                0.09461069107055664,
                36.00056457519531,
                30.00004768371582
            ],
            "min" : [
                -44.35549545288086,
                -35.99998474121094,
                -29.999988555908203
            ],
            "type" : "VEC3"
        },
        {
            "bufferView" : 1,
            "componentType" : 5126,
            "count" : 76499,
            "type" : "VEC3"
        },
        {
            "bufferView" : 2,
            "componentType" : 5126,
            "count" : 76499,
            "type" : "VEC2"
        },
        {
            "bufferView" : 3,
            "componentType" : 5125,
            "count" : 78042,
            "type" : "SCALAR"
        }
    ],
    "bufferViews" : [
        {
            "buffer" : 0,
            "byteLength" : 917988,
            "byteOffset" : 0
        },
        {
            "buffer" : 0,
            "byteLength" : 917988,
            "byteOffset" : 917988
        },
        {
            "buffer" : 0,
            "byteLength" : 611992,
            "byteOffset" : 1835976
        },
        {
            "buffer" : 0,
            "byteLength" : 312168,
            "byteOffset" : 2447968
        }
    ],
    "buffers" : [
        {
            "byteLength" : 2760136,
            "uri" : "data:application/octet-stream;base64,"
        }
    ]
}
