{
    "asset" : {
        "generator" : "Khronos glTF Blender I/O v1.2.75",
        "version" : "2.0"
    },
    "scene" : 0,
    "scenes" : [
        {
            "name" : "Scene",
            "nodes" : [
                0
            ]
        }
    ],
    "nodes" : [
        {
            "mesh" : 0,
            "name" : "00001104 OnyxCeph3 Export OK",
            "rotation" : [
                0.7072881460189819,
                0,
                0,
                0.7069253921508789
            ]
        }
    ],
    "meshes" : [
        {
            "name" : "00001104 OnyxCeph3 Export OK",
            "primitives" : [
                {
                    "attributes" : {
                        "POSITION" : 0,
                        "NORMAL" : 1
                    },
                    "indices" : 2
                }
            ]
        }
    ],
    "accessors" : [
        {
            "bufferView" : 0,
            "componentType" : 5126,
            "count" : 85782,
            "max" : [
                44.35001754760742,
                36.00056457519531,
                2.3950440883636475
            ],
            "min" : [
                -44.35001754760742,
                -35.99998474121094,
                -29.999988555908203
            ],
            "type" : "VEC3"
        },
        {
            "bufferView" : 1,
            "componentType" : 5126,
            "count" : 85782,
            "type" : "VEC3"
        },
        {
            "bufferView" : 2,
            "componentType" : 5125,
            "count" : 85818,
            "type" : "SCALAR"
        }
    ],
    "bufferViews" : [
        {
            "buffer" : 0,
            "byteLength" : 1029384,
            "byteOffset" : 0
        },
        {
            "buffer" : 0,
            "byteLength" : 1029384,
            "byteOffset" : 1029384
        },
        {
            "buffer" : 0,
            "byteLength" : 343272,
            "byteOffset" : 2058768
        }
    ],
    "buffers" : [
        {
            "byteLength" : 2402040,
            "uri" : "data:application/octet-stream;base64,"
        }
    ]
}
