{
    "asset" : {
        "generator" : "Khronos glTF Blender I/O v1.2.75",
        "version" : "2.0"
    },
    "scene" : 0,
    "scenes" : [
        {
            "name" : "Scene",
            "nodes" : [
                0
            ]
        }
    ],
    "nodes" : [
        {
            "mesh" : 0,
            "name" : "13819 OnyxCeph3 Export UK",
            "rotation" : [
                0.7070189714431763,
                0,
                0,
                0.7071945667266846
            ]
        }
    ],
    "meshes" : [
        {
            "name" : "13819 OnyxCeph3 Export UK",
            "primitives" : [
                {
                    "attributes" : {
                        "POSITION" : 0,
                        "NORMAL" : 1,
                        "TEXCOORD_0" : 2
                    },
                    "indices" : 3
                }
            ]
        }
    ],
    "accessors" : [
        {
            "bufferView" : 0,
            "componentType" : 5126,
            "count" : 80897,
            "max" : [
                -0.02907562255859375,
                35.98834991455078,
                30.000154495239258
            ],
            "min" : [
                -44.35549545288086,
                -35.99998474121094,
                -29.999990463256836
            ],
            "type" : "VEC3"
        },
        {
            "bufferView" : 1,
            "componentType" : 5126,
            "count" : 80897,
            "type" : "VEC3"
        },
        {
            "bufferView" : 2,
            "componentType" : 5126,
            "count" : 80897,
            "type" : "VEC2"
        },
        {
            "bufferView" : 3,
            "componentType" : 5125,
            "count" : 82596,
            "type" : "SCALAR"
        }
    ],
    "bufferViews" : [
        {
            "buffer" : 0,
            "byteLength" : 970764,
            "byteOffset" : 0
        },
        {
            "buffer" : 0,
            "byteLength" : 970764,
            "byteOffset" : 970764
        },
        {
            "buffer" : 0,
            "byteLength" : 647176,
            "byteOffset" : 1941528
        },
        {
            "buffer" : 0,
            "byteLength" : 330384,
            "byteOffset" : 2588704
        }
    ],
    "buffers" : [
        {
            "byteLength" : 2919088,
            "uri" : "data:application/octet-stream;base64,"
        }
    ]
}
