{
    "asset" : {
        "generator" : "Khronos glTF Blender I/O v1.2.75",
        "version" : "2.0"
    },
    "scene" : 0,
    "scenes" : [
        {
            "name" : "Scene",
            "nodes" : [
                0
            ]
        }
    ],
    "nodes" : [
        {
            "mesh" : 0,
            "name" : "13819 OnyxCeph3 Export UK",
            "rotation" : [
                0.7070189714431763,
                0,
                0,
                0.7071945667266846
            ]
        }
    ],
    "meshes" : [
        {
            "name" : "13819 OnyxCeph3 Export UK",
            "primitives" : [
                {
                    "attributes" : {
                        "POSITION" : 0,
                        "NORMAL" : 1
                    },
                    "indices" : 2
                }
            ]
        }
    ],
    "accessors" : [
        {
            "bufferView" : 0,
            "componentType" : 5126,
            "count" : 66641,
            "max" : [
                44.35001754760742,
                31.01740264892578,
                30.000154495239258
            ],
            "min" : [
                -44.35549545288086,
                -35.99998474121094,
                -4.925578594207764
            ],
            "type" : "VEC3"
        },
        {
            "bufferView" : 1,
            "componentType" : 5126,
            "count" : 66641,
            "type" : "VEC3"
        },
        {
            "bufferView" : 2,
            "componentType" : 5125,
            "count" : 66678,
            "type" : "SCALAR"
        }
    ],
    "bufferViews" : [
        {
            "buffer" : 0,
            "byteLength" : 799692,
            "byteOffset" : 0
        },
        {
            "buffer" : 0,
            "byteLength" : 799692,
            "byteOffset" : 799692
        },
        {
            "buffer" : 0,
            "byteLength" : 266712,
            "byteOffset" : 1599384
        }
    ],
    "buffers" : [
        {
            "byteLength" : 1866096,
            "uri" : "data:application/octet-stream;base64,"
        }
    ]
}
