{
    "asset" : {
        "generator" : "Khronos glTF Blender I/O v1.2.75",
        "version" : "2.0"
    },
    "scene" : 0,
    "scenes" : [
        {
            "name" : "Scene",
            "nodes" : [
                0
            ]
        }
    ],
    "nodes" : [
        {
            "mesh" : 0,
            "name" : "13819 OnyxCeph3 Export OK",
            "rotation" : [
                0.7070189714431763,
                0,
                0,
                0.7071945667266846
            ]
        }
    ],
    "meshes" : [
        {
            "name" : "13819 OnyxCeph3 Export OK",
            "primitives" : [
                {
                    "attributes" : {
                        "POSITION" : 0,
                        "NORMAL" : 1
                    },
                    "indices" : 2
                }
            ]
        }
    ],
    "accessors" : [
        {
            "bufferView" : 0,
            "componentType" : 5126,
            "count" : 88349,
            "max" : [
                44.3503303527832,
                36.000518798828125,
                2.9670140743255615
            ],
            "min" : [
                -44.35186767578125,
                -35.99998474121094,
                -29.999988555908203
            ],
            "type" : "VEC3"
        },
        {
            "bufferView" : 1,
            "componentType" : 5126,
            "count" : 88349,
            "type" : "VEC3"
        },
        {
            "bufferView" : 2,
            "componentType" : 5125,
            "count" : 88410,
            "type" : "SCALAR"
        }
    ],
    "bufferViews" : [
        {
            "buffer" : 0,
            "byteLength" : 1060188,
            "byteOffset" : 0
        },
        {
            "buffer" : 0,
            "byteLength" : 1060188,
            "byteOffset" : 1060188
        },
        {
            "buffer" : 0,
            "byteLength" : 353640,
            "byteOffset" : 2120376
        }
    ],
    "buffers" : [
        {
            "byteLength" : 2474016,
            "uri" : "data:application/octet-stream;base64,"
        }
    ]
}
